<svg width="108" height="57" viewBox="0 0 108 57" fill="none" xmlns="http://www.w3.org/2000/svg">
<path d="M8.43506 0C9.11471 0.0453098 9.95295 0.0906202 10.9498 0.13593C11.9919 0.13593 13.0794 0.158585 14.2121 0.203895C15.3449 0.203895 16.4097 0.203895 17.4065 0.203895C18.4486 0.203895 19.2642 0.203895 19.8533 0.203895V36.7693C19.8533 38.4458 20.0118 39.7372 20.329 40.6434C20.6462 41.5496 21.2579 42.1839 22.1641 42.5464C23.0703 42.9089 24.3616 43.0901 26.0381 43.0901V46.1486C24.7694 46.1486 23.2968 46.1486 21.6204 46.1486C19.9892 46.1486 18.3127 46.1486 16.5909 46.1486C14.9144 46.1939 13.3512 46.2165 11.9013 46.2165C10.4514 46.2619 9.29596 46.3072 8.43506 46.3525C8.43506 45.7181 8.45771 45.1744 8.50302 44.7213C8.54833 44.2229 8.63896 43.7924 8.77489 43.43C9.99827 43.3393 10.9498 43.1128 11.6294 42.7503C12.3091 42.3878 12.7849 41.7535 13.0567 40.8473C13.3286 39.8957 13.4645 38.5364 13.4645 36.7693V8.83551C13.4645 7.29496 13.3286 6.1169 13.0567 5.30131C12.7849 4.48572 12.3091 3.89669 11.6294 3.53421C10.9498 3.17172 9.99827 2.96783 8.77489 2.92252C8.63896 2.56003 8.54833 2.12958 8.50302 1.63117C8.45771 1.08745 8.43506 0.543722 8.43506 0ZM39.6992 34.5265C40.3788 34.7077 40.9452 34.9343 41.3983 35.2061C41.8514 35.4327 42.2819 35.7499 42.6897 36.1577C42.1913 37.6982 41.7608 39.3747 41.3983 41.1871C41.0812 42.9995 40.8093 44.6987 40.5827 46.2845C39.7218 46.2392 38.5438 46.2165 37.0485 46.2165C35.5986 46.2165 33.9221 46.1939 32.0191 46.1486C30.1614 46.1486 28.1677 46.1486 26.0381 46.1486V43.0901H26.4459C29.7083 43.0901 32.155 42.773 33.7862 42.1386C35.4627 41.459 36.7087 40.4848 37.5243 39.2161C38.3399 37.9474 39.0648 36.3842 39.6992 34.5265ZM34.9416 15.5641C34.8963 16.6969 34.851 17.9202 34.8057 19.2342C34.8057 20.5482 34.8057 21.7943 34.8057 22.9723C34.8057 24.1504 34.8057 25.4644 34.8057 26.9143C34.851 28.3643 34.8963 29.6783 34.9416 30.8563C34.3526 30.8563 33.8088 30.8337 33.3104 30.7884C32.812 30.7431 32.3136 30.6524 31.8152 30.5165C31.634 28.1604 30.9996 26.5745 29.9122 25.7589C28.87 24.898 26.9443 24.4676 24.1351 24.4676H19.2416V21.5451H24.1351C26.9443 21.5451 28.8927 21.1826 29.9801 20.4576C31.0676 19.7327 31.634 18.2601 31.6793 16.0399C32.2683 15.8586 32.812 15.7453 33.3104 15.7C33.8088 15.6094 34.3526 15.5641 34.9416 15.5641ZM38.9516 0C39.0422 0.996828 39.1555 2.15224 39.2914 3.46624C39.4273 4.78024 39.5859 6.07158 39.7672 7.34027C39.9484 8.60896 40.1523 9.74172 40.3788 10.7386C40.0164 11.0557 39.5633 11.2823 39.0195 11.4182C38.5211 11.5088 37.9547 11.5541 37.3204 11.5541C37.2298 10.1495 36.8673 8.79021 36.233 7.47621C35.5986 6.1622 34.4885 5.07476 32.9026 4.21386C31.3621 3.35296 29.1192 2.92252 26.1741 2.92252H18.426L19.8533 0.203895C23.4328 0.203895 26.4912 0.203895 29.0286 0.203895C31.6113 0.158585 33.7182 0.113275 35.3494 0.067965C37.0259 0.0226552 38.2266 0 38.9516 0Z" fill="#46413D"/>
<path d="M49.2542 46.3525C49.2542 45.7181 49.2768 45.1744 49.3221 44.7213C49.3675 44.2229 49.4581 43.7924 49.594 43.43C50.8174 43.3393 51.7689 43.1128 52.4486 42.7503C53.1282 42.3878 53.604 41.7535 53.8758 40.8473C54.193 39.8957 54.3516 38.5364 54.3516 36.7693V8.83551C54.3516 7.29496 54.2157 6.1169 53.9438 5.30131C53.6719 4.48572 53.1962 3.89669 52.5165 3.53421C51.8369 3.17172 50.8854 2.96783 49.662 2.92252C49.526 2.56003 49.4354 2.12958 49.3901 1.63117C49.3448 1.08745 49.3221 0.543722 49.3221 0C50.0471 0.0453098 50.9533 0.0906202 52.0408 0.13593C53.1735 0.13593 54.3289 0.158585 55.507 0.203895C56.7304 0.203895 57.8405 0.203895 58.8373 0.203895C60.1513 0.203895 61.488 0.18124 62.8473 0.13593C64.2066 0.0906202 65.5433 0.067965 66.8573 0.067965C69.2587 0.067965 71.6828 0.249206 74.1296 0.61169C76.5763 0.928861 78.9098 1.54055 81.13 2.44676C83.3502 3.30766 85.3212 4.57634 87.043 6.25283C88.8101 7.884 90.1921 9.99093 91.1889 12.5736C92.1857 15.111 92.6841 18.2601 92.6841 22.0208C92.6841 25.691 92.231 28.84 91.3248 31.468C90.4186 34.096 89.1952 36.2936 87.6547 38.0607C86.1595 39.8278 84.483 41.2551 82.6253 42.3425C80.7675 43.43 78.8645 44.2455 76.9161 44.7893C75.0131 45.333 73.178 45.6955 71.4109 45.8767C69.6438 46.058 68.1259 46.1486 66.8573 46.1486C65.5886 46.1486 64.116 46.1486 62.4395 46.1486C60.8083 46.1486 59.1318 46.1486 57.41 46.1486C55.7336 46.1939 54.1704 46.2165 52.7204 46.2165C51.2705 46.2619 50.1151 46.3072 49.2542 46.3525ZM66.8573 43.0901C69.5759 43.0901 72.0679 42.773 74.3335 42.1386C76.6443 41.459 78.6379 40.3715 80.3144 38.8763C82.0362 37.3357 83.3502 35.2741 84.2564 32.6914C85.2079 30.1087 85.6837 26.8917 85.6837 23.0403C85.6837 19.3702 85.1173 16.2438 83.9846 13.6611C82.8971 11.0331 81.4019 8.92614 79.4988 7.34027C77.6411 5.7091 75.5115 4.53103 73.1101 3.80607C70.7539 3.03579 68.3072 2.65065 65.7698 2.65065C64.773 2.65065 63.6855 2.74127 62.5075 2.92252C61.3294 3.05845 60.5591 3.23969 60.1966 3.46624L60.7404 1.69914V36.7693C60.7404 38.4458 60.8989 39.7372 61.2161 40.6434C61.5333 41.5496 62.1223 42.1839 62.9832 42.5464C63.8894 42.9089 65.1808 43.0901 66.8573 43.0901Z" fill="#46413D"/>
<path d="M1 14H108V34H1V14Z" fill="#F2F2F2"/>
<path d="M4.42694 30.5715C3.27581 30.5715 2.28389 30.296 1.45116 29.7449C0.483718 29.1081 0 28.2325 0 27.1181C0 25.9915 0.410242 24.9812 1.23073 24.0872C1.96549 23.279 2.89006 22.6667 4.00445 22.2503C3.4044 21.7238 3.10437 21.0808 3.10437 20.3216C3.10437 19.1582 3.6983 18.203 4.88617 17.456C5.93933 16.807 7.05984 16.4825 8.24771 16.4825C9.01921 16.4825 9.64988 16.6294 10.1397 16.9233C10.7643 17.2907 11.0765 17.8418 11.0765 18.5765C11.0765 19.1398 10.85 19.6052 10.3969 19.9726C9.94378 20.34 9.43557 20.5236 8.87225 20.5236C8.57835 20.5236 8.30281 20.4318 8.04565 20.2481C7.78848 20.0644 7.6599 19.8195 7.6599 19.5133C7.6599 19.4031 7.69663 19.2745 7.77011 19.1276C7.84359 18.9684 7.93543 18.8888 8.04565 18.8888C8.26607 18.8888 8.37629 18.999 8.37629 19.2194C8.37629 19.2562 8.36404 19.3174 8.33955 19.4031C8.31506 19.4766 8.30281 19.5317 8.30281 19.5685C8.30281 19.8011 8.49263 19.9175 8.87225 19.9175C9.31311 19.9175 9.68661 19.7889 9.99277 19.5317C10.2989 19.2623 10.452 18.9133 10.452 18.4847C10.452 17.9948 10.2132 17.6336 9.7356 17.4009C9.35597 17.205 8.87838 17.107 8.30281 17.107C7.2619 17.107 6.26997 17.3764 5.32703 17.9152C4.26162 18.5398 3.72892 19.3297 3.72892 20.2848C3.72892 21.0686 4.06568 21.6503 4.73922 22.0299C5.06986 21.9442 5.43724 21.883 5.84136 21.8462C6.24548 21.7972 6.69246 21.7727 7.1823 21.7727C7.88032 21.7727 8.22934 21.9687 8.22934 22.3605C8.22934 22.8137 7.74562 23.0402 6.77818 23.0402C5.85973 23.0402 5.1617 22.9239 4.68411 22.6912C3.58197 23.0096 2.65739 23.5423 1.91038 24.2893C1.04091 25.1343 0.606179 26.0711 0.606179 27.0998C0.606179 28.055 1.01642 28.7897 1.83691 29.3041C2.51044 29.7204 3.37991 29.9286 4.44531 29.9286C5.76788 29.9286 6.94963 29.6531 7.99054 29.102C9.25188 28.4285 9.88255 27.4916 9.88255 26.2915C9.88255 25.7037 9.66825 25.4098 9.23963 25.4098C9.16616 25.4098 9.05594 25.4282 8.90899 25.4649C8.77429 25.4894 8.67019 25.5017 8.59672 25.5017C8.38853 25.5017 8.28444 25.3914 8.28444 25.171C8.28444 24.9138 8.60896 24.7853 9.258 24.7853C10.0785 24.7853 10.4887 25.318 10.4887 26.3834C10.4887 26.5548 10.4765 26.7201 10.452 26.8793C10.4275 27.0385 10.3908 27.1977 10.3418 27.3569C9.96215 28.4346 9.14779 29.2612 7.89869 29.8368C6.87003 30.3266 5.71278 30.5715 4.42694 30.5715Z" fill="#46413D"/>
<path d="M13.0739 29.9102C12.0575 29.9102 11.5064 29.2122 11.4207 27.8162C11.3594 26.7752 11.6778 25.2078 12.3759 23.1137C13.0004 21.2523 13.6188 19.7705 14.2311 18.6684C14.9537 17.358 15.6394 16.7029 16.2885 16.7029C16.8395 16.7029 17.1151 17.1437 17.1151 18.0255C17.1151 18.9562 16.7599 20.0399 16.0497 21.2768C14.923 23.2361 13.6739 24.773 12.3024 25.8874C12.2412 26.2058 12.1922 26.5058 12.1554 26.7875C12.1187 27.0569 12.1003 27.3141 12.1003 27.559C12.1003 28.7224 12.4616 29.3041 13.1841 29.3041C13.6127 29.3041 14.0291 29.1877 14.4332 28.955C14.8496 28.7101 15.3088 28.2142 15.8109 27.4671C15.8476 27.4182 15.9211 27.3202 16.0313 27.1732C16.1538 27.014 16.2579 26.9344 16.3436 26.9344C16.466 26.9344 16.5273 27.014 16.5273 27.1732C16.5273 27.1977 16.5211 27.2467 16.5089 27.3202C16.4967 27.3937 16.4722 27.461 16.4354 27.5223C16.2395 27.9019 15.9823 28.2754 15.6639 28.6428C15.3455 29.0101 14.9659 29.3163 14.525 29.5612C14.0964 29.7939 13.6127 29.9102 13.0739 29.9102ZM12.5963 24.7853C13.6984 23.6586 14.6597 22.3789 15.4802 20.9461C16.166 19.746 16.5089 18.7296 16.5089 17.8969C16.5089 17.505 16.4232 17.3091 16.2517 17.3091C16.1293 17.3091 15.964 17.4131 15.7558 17.6213C15.3272 18.0867 14.8679 18.8827 14.3781 20.0093C14.0719 20.6951 13.7719 21.436 13.478 22.232C13.1841 23.028 12.8902 23.8791 12.5963 24.7853Z" fill="#46413D"/>
<path d="M18.3065 22.3422C17.8779 22.3422 17.6636 22.1279 17.6636 21.6993C17.6636 21.2707 17.8779 21.0563 18.3065 21.0563C18.7351 21.0563 18.9494 21.2707 18.9494 21.6993C18.9494 22.1279 18.7351 22.3422 18.3065 22.3422ZM17.4799 29.7449C17.0635 29.7449 16.7145 29.5918 16.4328 29.2857C16.1512 28.9795 16.0104 28.5999 16.0104 28.1468C16.0104 27.5957 16.2185 26.8671 16.6349 25.9609C17.0513 25.0547 17.2594 24.3322 17.2594 23.7933C17.2594 23.5974 17.3635 23.4994 17.5717 23.4994C17.7799 23.4994 17.884 23.6586 17.884 23.977C17.884 24.4179 17.6758 25.0975 17.2594 26.016C16.8431 26.9344 16.6349 27.6263 16.6349 28.0917C16.6349 28.3734 16.7206 28.6183 16.8921 28.8265C17.0758 29.0224 17.2962 29.1204 17.5534 29.1204C18.0065 29.1204 18.4167 28.9612 18.7841 28.6428C19.1515 28.3244 19.4882 27.9325 19.7944 27.4671C19.9291 27.259 20.0332 27.1181 20.1067 27.0447C20.1801 26.9712 20.2536 26.9344 20.3271 26.9344C20.4863 26.9344 20.5659 26.9957 20.5659 27.1181C20.5659 27.1916 20.5169 27.3263 20.4189 27.5223C20.076 28.1468 19.6535 28.6734 19.1515 29.102C18.6494 29.5306 18.0922 29.7449 17.4799 29.7449Z" fill="#46413D"/>
<path d="M26.1831 29.7449C25.73 29.7449 25.3504 29.6102 25.0442 29.3408C24.738 29.0591 24.6095 28.655 24.6584 28.1284C23.9114 29.1938 23.0114 29.7265 21.9582 29.7265C21.2847 29.7265 20.7826 29.4633 20.4519 28.9367C20.1825 28.5203 20.0478 27.957 20.0478 27.2467C20.0478 27.112 20.0539 26.9773 20.0662 26.8426C20.0784 26.6956 20.0968 26.5548 20.1213 26.4201C20.207 25.9303 20.3723 25.4588 20.6173 25.0057C20.8622 24.5403 21.1806 24.0811 21.5724 23.628C22.4542 22.6361 23.3665 22.1401 24.3094 22.1401C24.8115 22.1401 25.2279 22.2871 25.5585 22.581C25.8892 22.8626 26.0545 23.2606 26.0545 23.775C26.0545 23.9831 25.9994 24.1852 25.8892 24.3811C26.1463 24.3934 26.2504 24.5097 26.2014 24.7302L25.6136 26.4017C25.4177 26.9528 25.3197 27.4549 25.3197 27.908C25.3197 28.3244 25.4055 28.6489 25.5769 28.8816C25.7606 29.1142 26.0055 29.2306 26.3117 29.2306C26.4831 29.2306 26.6729 29.1816 26.8811 29.0836C27.0893 28.9857 27.3281 28.8203 27.5975 28.5877C27.7812 28.4285 27.9526 28.2509 28.1118 28.055C28.2833 27.859 28.4302 27.6631 28.5527 27.4671C28.6262 27.3569 28.7058 27.2528 28.7915 27.1549C28.8772 27.0447 28.9629 26.9896 29.0487 26.9896C29.1956 26.9896 29.2691 27.0692 29.2691 27.2283C29.2691 27.2896 29.2568 27.3508 29.2323 27.412C29.2201 27.461 29.2017 27.4978 29.1772 27.5223C29.018 27.7794 28.8405 28.0305 28.6445 28.2754C28.4486 28.5203 28.2404 28.7469 28.02 28.955C27.7261 29.2245 27.4199 29.4265 27.1015 29.5612C26.7831 29.6837 26.477 29.7449 26.1831 29.7449ZM20.6724 27.3386C20.6724 28.5142 21.1255 29.102 22.0317 29.102C22.8032 29.102 23.4706 28.7346 24.0339 27.9998C24.2053 27.7672 24.3829 27.4733 24.5666 27.1181C24.7503 26.763 24.9279 26.3466 25.0993 25.869C25.1483 25.7466 25.1973 25.6057 25.2463 25.4465C25.3075 25.2751 25.381 25.0853 25.4667 24.8771C25.2218 25.0608 24.9707 25.1526 24.7136 25.1526C24.2727 25.1526 24.0523 25.0302 24.0523 24.7853C24.0523 24.5771 24.1564 24.473 24.3645 24.473C24.4013 24.473 24.4503 24.4852 24.5115 24.5097C24.585 24.522 24.6401 24.5281 24.6768 24.5281C24.8605 24.5281 25.0319 24.4485 25.1911 24.2893C25.3503 24.1301 25.4299 23.9587 25.4299 23.775C25.4299 23.1014 25.0503 22.7647 24.2911 22.7647C23.5318 22.7647 22.7726 23.2055 22.0133 24.0872C21.2908 24.8955 20.8683 25.7098 20.7458 26.5303C20.7213 26.665 20.703 26.7997 20.6907 26.9344C20.6785 27.0692 20.6724 27.2039 20.6724 27.3386Z" fill="#46413D"/>
<path d="M34.1288 29.7633C33.6757 29.7633 33.3206 29.6408 33.0634 29.3959C32.8063 29.151 32.6777 28.8081 32.6777 28.3672C32.6777 28.208 32.7205 27.957 32.8063 27.6141C32.892 27.2712 33.0083 26.8916 33.1553 26.4752C33.3267 25.9731 33.4553 25.569 33.541 25.2629C33.639 24.9567 33.7002 24.7424 33.7247 24.6199C33.7492 24.4852 33.7676 24.3628 33.7798 24.2526C33.7921 24.1423 33.7982 24.0383 33.7982 23.9403C33.7982 23.2423 33.5043 22.8933 32.9165 22.8933C32.0838 22.8933 31.2816 23.5423 30.5101 24.8404C30.1183 25.5017 29.6529 26.5364 29.1141 27.9447C29.0651 28.1162 28.9855 28.3305 28.8753 28.5877C28.7773 28.8326 28.661 29.1204 28.5263 29.451C28.4651 29.5857 28.3855 29.6531 28.2875 29.6531C28.2018 29.6531 28.1222 29.6163 28.0487 29.5429C27.9752 29.4571 27.9385 29.3775 27.9385 29.3041C27.9385 29.2551 28.1467 28.6611 28.563 27.5223C29.359 25.318 29.757 23.6219 29.757 22.434C29.757 22.2013 29.8611 22.085 30.0693 22.085C30.1917 22.085 30.2897 22.1707 30.3632 22.3422C30.4367 22.5014 30.4734 22.6422 30.4734 22.7647C30.4734 23.0953 30.4183 23.4933 30.3081 23.9587C31.1408 22.8198 32.0409 22.2503 33.0083 22.2503C34.0248 22.2503 34.533 22.8014 34.533 23.9035C34.533 24.3811 34.2819 25.3363 33.7798 26.7691C33.6941 27.014 33.6084 27.2835 33.5227 27.5774C33.4492 27.8713 33.4124 28.1407 33.4124 28.3856C33.4124 28.606 33.4553 28.7897 33.541 28.9367C33.639 29.0714 33.8104 29.1387 34.0554 29.1387C34.3248 29.1387 34.6126 29.0591 34.9187 28.8999C35.2249 28.7285 35.5188 28.5142 35.8004 28.257C36.0821 27.9998 36.3086 27.7304 36.4801 27.4488C36.5903 27.2773 36.676 27.1487 36.7373 27.063C36.8107 26.9773 36.8964 26.9344 36.9944 26.9344C37.1414 26.9344 37.2148 27.0202 37.2148 27.1916C37.2148 27.2161 37.2026 27.2712 37.1781 27.3569C37.1536 27.4427 37.1291 27.4978 37.1046 27.5223C36.8964 27.9141 36.627 28.2815 36.2964 28.6244C35.9657 28.9673 35.6106 29.2428 35.231 29.451C34.8514 29.6592 34.484 29.7633 34.1288 29.7633Z" fill="#46413D"/>
<path d="M42.8659 29.7449C42.4128 29.7449 42.0332 29.6102 41.727 29.3408C41.4209 29.0591 41.2923 28.655 41.3413 28.1284C40.5943 29.1938 39.6942 29.7265 38.641 29.7265C37.9675 29.7265 37.4654 29.4633 37.1348 28.9367C36.8654 28.5203 36.7306 27.957 36.7306 27.2467C36.7306 27.112 36.7368 26.9773 36.749 26.8426C36.7613 26.6956 36.7796 26.5548 36.8041 26.4201C36.8898 25.9303 37.0552 25.4588 37.3001 25.0057C37.545 24.5403 37.8634 24.0811 38.2553 23.628C39.137 22.6361 40.0493 22.1401 40.9923 22.1401C41.4944 22.1401 41.9107 22.2871 42.2414 22.581C42.572 22.8626 42.7373 23.2606 42.7373 23.775C42.7373 23.9831 42.6822 24.1852 42.572 24.3811C42.8292 24.3934 42.9333 24.5097 42.8843 24.7302L42.2965 26.4017C42.1005 26.9528 42.0026 27.4549 42.0026 27.908C42.0026 28.3244 42.0883 28.6489 42.2597 28.8816C42.4434 29.1142 42.6883 29.2306 42.9945 29.2306C43.1659 29.2306 43.3558 29.1816 43.5639 29.0836C43.7721 28.9857 44.0109 28.8203 44.2803 28.5877C44.464 28.4285 44.6355 28.2509 44.7947 28.055C44.9661 27.859 45.1131 27.6631 45.2355 27.4671C45.309 27.3569 45.3886 27.2528 45.4743 27.1549C45.56 27.0447 45.6458 26.9896 45.7315 26.9896C45.8784 26.9896 45.9519 27.0692 45.9519 27.2283C45.9519 27.2896 45.9397 27.3508 45.9152 27.412C45.9029 27.461 45.8846 27.4978 45.8601 27.5223C45.7009 27.7794 45.5233 28.0305 45.3274 28.2754C45.1314 28.5203 44.9232 28.7469 44.7028 28.955C44.4089 29.2245 44.1028 29.4265 43.7844 29.5612C43.466 29.6837 43.1598 29.7449 42.8659 29.7449ZM37.3552 27.3386C37.3552 28.5142 37.8083 29.102 38.7145 29.102C39.486 29.102 40.1534 28.7346 40.7167 27.9998C40.8882 27.7672 41.0657 27.4733 41.2494 27.1181C41.4331 26.763 41.6107 26.3466 41.7821 25.869C41.8311 25.7466 41.8801 25.6057 41.9291 25.4465C41.9903 25.2751 42.0638 25.0853 42.1495 24.8771C41.9046 25.0608 41.6536 25.1526 41.3964 25.1526C40.9555 25.1526 40.7351 25.0302 40.7351 24.7853C40.7351 24.5771 40.8392 24.473 41.0474 24.473C41.0841 24.473 41.1331 24.4852 41.1943 24.5097C41.2678 24.522 41.3229 24.5281 41.3596 24.5281C41.5433 24.5281 41.7148 24.4485 41.874 24.2893C42.0332 24.1301 42.1128 23.9587 42.1128 23.775C42.1128 23.1014 41.7332 22.7647 40.9739 22.7647C40.2146 22.7647 39.4554 23.2055 38.6961 24.0872C37.9736 24.8955 37.5511 25.7098 37.4287 26.5303C37.4042 26.665 37.3858 26.7997 37.3736 26.9344C37.3613 27.0692 37.3552 27.2039 37.3552 27.3386Z" fill="#46413D"/>
<path d="M50.8117 30.9022C50.7137 30.9022 50.5668 30.896 50.3708 30.8838C50.1871 30.8715 50.0463 30.8654 49.9483 30.8654C49.7524 30.8654 49.6544 30.7613 49.6544 30.5531C49.6544 30.345 49.7524 30.2409 49.9483 30.2409C50.0341 30.2409 50.1688 30.247 50.3525 30.2592C50.5361 30.2715 50.6708 30.2776 50.7566 30.2776C51.822 30.2776 52.82 29.8735 53.7507 29.0653C53.1752 28.453 52.8874 27.7182 52.8874 26.861C52.8874 26.1017 53.1384 25.4527 53.6405 24.9138C54.1304 24.3873 54.7733 24.124 55.5693 24.124C55.9489 24.124 56.2918 24.1975 56.5979 24.3444C56.7939 23.7566 56.9898 23.1688 57.1857 22.581C57.3817 21.9932 57.5776 21.3992 57.7735 20.7992C58.2756 19.3541 58.8083 18.2581 59.3717 17.5111L58.3246 17.456C55.7407 17.456 54.0079 18.0806 53.1262 19.3297C52.869 19.7093 52.7404 20.095 52.7404 20.4869C52.7404 20.8665 52.8568 21.1788 53.0894 21.4237C53.3344 21.6564 53.6466 21.7727 54.0263 21.7727C54.1487 21.7727 54.314 21.7299 54.5222 21.6442C54.7304 21.5584 54.8651 21.5156 54.9263 21.5156C55.1345 21.5156 55.2386 21.6258 55.2386 21.8462C55.2386 21.9809 55.0611 22.1156 54.7059 22.2503C54.3875 22.3483 54.1487 22.3973 53.9895 22.3973C53.4385 22.3973 52.9853 22.2197 52.6302 21.8646C52.2873 21.4972 52.1159 21.0441 52.1159 20.5053C52.1159 20.0154 52.2751 19.5256 52.5935 19.0357C53.5732 17.5785 55.5325 16.8498 58.4716 16.8498C58.7777 16.8498 59.0471 16.856 59.2798 16.8682C59.5125 16.8804 59.7084 16.8988 59.8676 16.9233C60.3207 16.4702 60.7248 16.2437 61.08 16.2437C61.2759 16.2437 61.3739 16.3539 61.3739 16.5743C61.3739 16.7212 61.1841 16.8743 60.8044 17.0335C62.5801 17.3274 64.0252 17.9642 65.1395 18.9439C66.3886 20.0583 67.0132 21.4911 67.0132 23.2423C67.0132 25.5323 66.0519 27.3569 64.1292 28.7162C62.427 29.9286 60.3881 30.5348 58.0123 30.5348C56.3346 30.5348 55.061 30.1858 54.1916 29.4877C53.1384 30.4307 52.0118 30.9022 50.8117 30.9022ZM58.0123 29.9102C60.2289 29.9102 62.127 29.3592 63.7068 28.257C65.4824 27.0324 66.3703 25.3608 66.3703 23.2423C66.3703 21.5523 65.7335 20.1991 64.4599 19.1827C63.3822 18.3255 61.9311 17.7867 60.1064 17.5662C59.4941 18.301 58.9186 19.4399 58.3797 20.9829C58.1838 21.5952 57.9817 22.2136 57.7735 22.8381C57.5654 23.4504 57.3572 24.0627 57.149 24.675C57.7123 25.1159 57.994 25.6792 57.994 26.365C57.994 27.2835 57.7613 27.7427 57.296 27.7427C57.1123 27.7427 57.0204 27.6447 57.0204 27.4488C57.0204 27.3998 57.0755 27.259 57.1857 27.0263C57.3082 26.7936 57.3694 26.5854 57.3694 26.4017C57.3694 25.9731 57.2102 25.5996 56.8918 25.2812C56.2183 26.8977 55.4652 28.1468 54.6324 29.0285C55.3917 29.6163 56.5183 29.9102 58.0123 29.9102ZM54.1916 28.606C54.9876 27.7366 55.7223 26.5058 56.3959 24.9138C56.1387 24.8036 55.8632 24.7485 55.5693 24.7485C54.9447 24.7485 54.4426 24.9506 54.063 25.3547C53.6956 25.7466 53.5119 26.2548 53.5119 26.8793C53.5119 27.4916 53.7385 28.0672 54.1916 28.606Z" fill="#46413D"/>
<path d="M73.5408 29.7449C73.0877 29.7449 72.7081 29.6102 72.4019 29.3408C72.0958 29.0591 71.9672 28.655 72.0162 28.1284C71.2692 29.1938 70.3691 29.7265 69.3159 29.7265C68.6424 29.7265 68.1403 29.4633 67.8097 28.9367C67.5402 28.5203 67.4055 27.957 67.4055 27.2467C67.4055 27.112 67.4117 26.9773 67.4239 26.8426C67.4362 26.6956 67.4545 26.5548 67.479 26.4201C67.5647 25.9303 67.7301 25.4588 67.975 25.0057C68.2199 24.5403 68.5383 24.0811 68.9302 23.628C69.8119 22.6361 70.7242 22.1401 71.6672 22.1401C72.1692 22.1401 72.5856 22.2871 72.9162 22.581C73.2469 22.8626 73.4122 23.2606 73.4122 23.775C73.4122 23.9831 73.3571 24.1852 73.2469 24.3811C73.5041 24.3934 73.6082 24.5097 73.5592 24.7302L72.9714 26.4017C72.7754 26.9528 72.6775 27.4549 72.6775 27.908C72.6775 28.3244 72.7632 28.6489 72.9346 28.8816C73.1183 29.1142 73.3632 29.2306 73.6694 29.2306C73.8408 29.2306 74.0306 29.1816 74.2388 29.0836C74.447 28.9857 74.6858 28.8203 74.9552 28.5877C75.1389 28.4285 75.3103 28.2509 75.4695 28.055C75.641 27.859 75.7879 27.6631 75.9104 27.4671C75.9839 27.3569 76.0635 27.2528 76.1492 27.1549C76.2349 27.0447 76.3207 26.9896 76.4064 26.9896C76.5533 26.9896 76.6268 27.0692 76.6268 27.2283C76.6268 27.2896 76.6146 27.3508 76.5901 27.412C76.5778 27.461 76.5594 27.4978 76.535 27.5223C76.3758 27.7794 76.1982 28.0305 76.0023 28.2754C75.8063 28.5203 75.5981 28.7469 75.3777 28.955C75.0838 29.2245 74.7776 29.4265 74.4593 29.5612C74.1409 29.6837 73.8347 29.7449 73.5408 29.7449ZM68.0301 27.3386C68.0301 28.5142 68.4832 29.102 69.3894 29.102C70.1609 29.102 70.8283 28.7346 71.3916 27.9998C71.5631 27.7672 71.7406 27.4733 71.9243 27.1181C72.108 26.763 72.2856 26.3466 72.457 25.869C72.506 25.7466 72.555 25.6057 72.604 25.4465C72.6652 25.2751 72.7387 25.0853 72.8244 24.8771C72.5795 25.0608 72.3284 25.1526 72.0713 25.1526C71.6304 25.1526 71.41 25.0302 71.41 24.7853C71.41 24.5771 71.5141 24.473 71.7223 24.473C71.759 24.473 71.808 24.4852 71.8692 24.5097C71.9427 24.522 71.9978 24.5281 72.0345 24.5281C72.2182 24.5281 72.3897 24.4485 72.5489 24.2893C72.7081 24.1301 72.7877 23.9587 72.7877 23.775C72.7877 23.1014 72.408 22.7647 71.6488 22.7647C70.8895 22.7647 70.1303 23.2055 69.371 24.0872C68.6485 24.8955 68.226 25.7098 68.1036 26.5303C68.0791 26.665 68.0607 26.7997 68.0485 26.9344C68.0362 27.0692 68.0301 27.2039 68.0301 27.3386Z" fill="#46413D"/>
<path d="M81.4866 29.7633C81.0335 29.7633 80.6783 29.6408 80.4212 29.3959C80.164 29.151 80.0354 28.8081 80.0354 28.3672C80.0354 28.208 80.0783 27.957 80.164 27.6141C80.2497 27.2712 80.366 26.8916 80.513 26.4752C80.6844 25.9731 80.813 25.569 80.8988 25.2629C80.9967 24.9567 81.058 24.7424 81.0824 24.6199C81.1069 24.4852 81.1253 24.3628 81.1375 24.2526C81.1498 24.1423 81.1559 24.0383 81.1559 23.9403C81.1559 23.2423 80.862 22.8933 80.2742 22.8933C79.4415 22.8933 78.6394 23.5423 77.8679 24.8404C77.476 25.5017 77.0106 26.5364 76.4718 27.9447C76.4228 28.1162 76.3432 28.3305 76.233 28.5877C76.135 28.8326 76.0187 29.1204 75.884 29.451C75.8228 29.5857 75.7432 29.6531 75.6452 29.6531C75.5595 29.6531 75.4799 29.6163 75.4064 29.5429C75.3329 29.4571 75.2962 29.3775 75.2962 29.3041C75.2962 29.2551 75.5044 28.6611 75.9207 27.5223C76.7167 25.318 77.1147 23.6219 77.1147 22.434C77.1147 22.2013 77.2188 22.085 77.427 22.085C77.5495 22.085 77.6474 22.1707 77.7209 22.3422C77.7944 22.5014 77.8311 22.6422 77.8311 22.7647C77.8311 23.0953 77.776 23.4933 77.6658 23.9587C78.4985 22.8198 79.3986 22.2503 80.3661 22.2503C81.3825 22.2503 81.8907 22.8014 81.8907 23.9035C81.8907 24.3811 81.6396 25.3363 81.1375 26.7691C81.0518 27.014 80.9661 27.2835 80.8804 27.5774C80.8069 27.8713 80.7702 28.1407 80.7702 28.3856C80.7702 28.606 80.813 28.7897 80.8988 28.9367C80.9967 29.0714 81.1682 29.1387 81.4131 29.1387C81.6825 29.1387 81.9703 29.0591 82.2764 28.8999C82.5826 28.7285 82.8765 28.5142 83.1581 28.257C83.4398 27.9998 83.6664 27.7304 83.8378 27.4488C83.948 27.2773 84.0337 27.1487 84.095 27.063C84.1684 26.9773 84.2542 26.9344 84.3521 26.9344C84.4991 26.9344 84.5726 27.0202 84.5726 27.1916C84.5726 27.2161 84.5603 27.2712 84.5358 27.3569C84.5113 27.4427 84.4868 27.4978 84.4623 27.5223C84.2542 27.9141 83.9848 28.2815 83.6541 28.6244C83.3235 28.9673 82.9683 29.2428 82.5887 29.451C82.2091 29.6592 81.8417 29.7633 81.4866 29.7633Z" fill="#46413D"/>
<path d="M85.3926 29.8551C84.4496 29.8551 83.9782 29.0959 83.9782 27.5774C83.9782 26.3038 84.2537 24.7424 84.8048 22.8933H84.2169C84.021 22.8933 83.923 22.7892 83.923 22.581C83.923 22.3728 84.021 22.2687 84.2169 22.2687H85.0068C85.166 21.7911 85.3313 21.3441 85.5028 20.9278C85.6742 20.5114 85.8518 20.1318 86.0355 19.7889C86.5866 18.7235 87.1254 18.1908 87.652 18.1908C88.0683 18.1908 88.2765 18.5214 88.2765 19.1827C88.2765 19.5378 88.2153 19.9175 88.0928 20.3216C88.0071 20.6032 87.9091 20.9094 87.7989 21.24C87.6887 21.5584 87.5601 21.9013 87.4132 22.2687H88.3132C88.5214 22.2687 88.6255 22.3728 88.6255 22.581C88.6255 22.7892 88.5214 22.8933 88.3132 22.8933H87.1193C86.4947 24.2893 85.6681 25.6853 84.6394 27.0814C84.6272 27.1794 84.6211 27.2773 84.6211 27.3753C84.6211 27.461 84.6211 27.5467 84.6211 27.6325C84.6211 28.7224 84.9272 29.2673 85.5395 29.2673C86.0171 29.2673 86.4396 29.0959 86.807 28.753C87.1866 28.4101 87.5295 27.9815 87.8357 27.4671C87.9581 27.259 88.0622 27.1181 88.1479 27.0447C88.2336 26.9712 88.301 26.9344 88.35 26.9344C88.4969 26.9344 88.5704 27.0263 88.5704 27.21C88.5704 27.2345 88.552 27.2957 88.5153 27.3937C88.4908 27.4794 88.4663 27.5345 88.4418 27.559C88.0867 28.2325 87.652 28.7836 87.1376 29.2122C86.6233 29.6408 86.0416 29.8551 85.3926 29.8551ZM85.6865 22.2687H86.6968C86.8927 21.8401 87.0519 21.4605 87.1744 21.1298C87.3091 20.7992 87.4132 20.5175 87.4866 20.2848C87.5846 19.9175 87.6336 19.6113 87.6336 19.3664C87.6336 19.097 87.5785 18.9623 87.4683 18.9623C87.2723 18.9623 86.9968 19.2929 86.6417 19.9542C86.4825 20.2604 86.3233 20.6094 86.1641 21.0012C86.0049 21.3809 85.8457 21.8034 85.6865 22.2687ZM84.7864 25.869C85.0681 25.4037 85.3436 24.9261 85.613 24.4363C85.8824 23.9342 86.1457 23.4198 86.4029 22.8933H85.4844C85.3252 23.3831 85.1844 23.8791 85.0619 24.3811C84.9517 24.871 84.8599 25.367 84.7864 25.869Z" fill="#46413D"/>
<path d="M94.2239 29.7449C93.7708 29.7449 93.3912 29.6102 93.085 29.3408C92.7789 29.0591 92.6503 28.655 92.6993 28.1284C91.9523 29.1938 91.0522 29.7265 89.999 29.7265C89.3255 29.7265 88.8234 29.4633 88.4928 28.9367C88.2234 28.5203 88.0887 27.957 88.0887 27.2467C88.0887 27.112 88.0948 26.9773 88.107 26.8426C88.1193 26.6956 88.1376 26.5548 88.1621 26.4201C88.2479 25.9303 88.4132 25.4588 88.6581 25.0057C88.903 24.5403 89.2214 24.0811 89.6133 23.628C90.495 22.6361 91.4073 22.1401 92.3503 22.1401C92.8524 22.1401 93.2687 22.2871 93.5994 22.581C93.93 22.8626 94.0953 23.2606 94.0953 23.775C94.0953 23.9831 94.0402 24.1852 93.93 24.3811C94.1872 24.3934 94.2913 24.5097 94.2423 24.7302L93.6545 26.4017C93.4585 26.9528 93.3606 27.4549 93.3606 27.908C93.3606 28.3244 93.4463 28.6489 93.6177 28.8816C93.8014 29.1142 94.0464 29.2306 94.3525 29.2306C94.524 29.2306 94.7138 29.1816 94.9219 29.0836C95.1301 28.9857 95.3689 28.8203 95.6383 28.5877C95.822 28.4285 95.9935 28.2509 96.1527 28.055C96.3241 27.859 96.4711 27.6631 96.5935 27.4671C96.667 27.3569 96.7466 27.2528 96.8323 27.1549C96.9181 27.0447 97.0038 26.9896 97.0895 26.9896C97.2365 26.9896 97.3099 27.0692 97.3099 27.2283C97.3099 27.2896 97.2977 27.3508 97.2732 27.412C97.2609 27.461 97.2426 27.4978 97.2181 27.5223C97.0589 27.7794 96.8813 28.0305 96.6854 28.2754C96.4894 28.5203 96.2813 28.7469 96.0608 28.955C95.7669 29.2245 95.4608 29.4265 95.1424 29.5612C94.824 29.6837 94.5178 29.7449 94.2239 29.7449ZM88.7132 27.3386C88.7132 28.5142 89.1663 29.102 90.0725 29.102C90.844 29.102 91.5114 28.7346 92.0747 27.9998C92.2462 27.7672 92.4238 27.4733 92.6074 27.1181C92.7911 26.763 92.9687 26.3466 93.1401 25.869C93.1891 25.7466 93.2381 25.6057 93.2871 25.4465C93.3483 25.2751 93.4218 25.0853 93.5075 24.8771C93.2626 25.0608 93.0116 25.1526 92.7544 25.1526C92.3135 25.1526 92.0931 25.0302 92.0931 24.7853C92.0931 24.5771 92.1972 24.473 92.4054 24.473C92.4421 24.473 92.4911 24.4852 92.5523 24.5097C92.6258 24.522 92.6809 24.5281 92.7177 24.5281C92.9014 24.5281 93.0728 24.4485 93.232 24.2893C93.3912 24.1301 93.4708 23.9587 93.4708 23.775C93.4708 23.1014 93.0912 22.7647 92.3319 22.7647C91.5727 22.7647 90.8134 23.2055 90.0541 24.0872C89.3316 24.8955 88.9091 25.7098 88.7867 26.5303C88.7622 26.665 88.7438 26.7997 88.7316 26.9344C88.7193 27.0692 88.7132 27.2039 88.7132 27.3386Z" fill="#46413D"/>
<path d="M99.0286 29.9837C98.3428 29.9837 97.7672 29.8061 97.3019 29.451C96.7753 29.0469 96.512 28.5019 96.512 27.8162C96.512 27.3753 96.6222 26.9528 96.8427 26.5487C97.0631 26.1446 97.3631 25.8323 97.7427 25.6119C97.9877 25.2567 98.2754 24.871 98.6061 24.4546C98.9367 24.0383 99.3102 23.5852 99.7266 23.0953C99.5796 22.7034 99.5062 22.3361 99.5062 21.9932C99.5062 21.589 99.5796 21.2339 99.7266 20.9278C99.9225 20.5114 100.216 20.3032 100.608 20.3032C101.184 20.3032 101.472 20.6032 101.472 21.2033C101.472 21.5829 101.374 21.9074 101.178 22.1769L100.48 23.1688L101.637 24.7853C101.857 25.0914 102.017 25.4037 102.115 25.7221C102.225 26.0405 102.28 26.3528 102.28 26.6589C102.28 27.5774 101.968 28.3611 101.343 29.0101C100.719 29.6592 99.947 29.9837 99.0286 29.9837ZM100.204 22.5442C100.376 22.3483 100.523 22.1524 100.645 21.9564C100.816 21.638 100.902 21.3931 100.902 21.2217C100.902 21.038 100.804 20.9461 100.608 20.9461C100.278 20.9461 100.112 21.3013 100.112 22.0115C100.112 22.0973 100.118 22.183 100.131 22.2687C100.155 22.3544 100.18 22.4463 100.204 22.5442ZM99.0102 29.3408C99.7817 29.3408 100.412 29.0836 100.902 28.5693C101.404 28.0427 101.655 27.4059 101.655 26.6589C101.655 26.1446 101.459 25.618 101.068 25.0792L100.039 23.6831L98.6796 25.3731C99.5368 25.4221 99.9654 25.8445 99.9654 26.6405C99.9654 26.8855 99.8797 27.1304 99.7082 27.3753C99.6225 27.4978 99.5123 27.559 99.3776 27.559C99.2061 27.559 99.1204 27.4488 99.1204 27.2283C99.1204 27.1549 99.1572 27.0569 99.2306 26.9344C99.3041 26.812 99.3409 26.714 99.3409 26.6405C99.3409 26.2119 99.1082 25.9976 98.6428 25.9976C98.4959 25.9976 98.355 26.016 98.2203 26.0527C98.2326 26.3099 98.1285 26.5977 97.9081 26.9161C97.6999 27.2222 97.4488 27.4794 97.1549 27.6876C97.2284 28.7897 97.8468 29.3408 99.0102 29.3408Z" fill="#46413D"/>
<path d="M6.60354 57C6.27704 57 5.99004 56.9592 5.74253 56.8775C5.50028 56.7911 5.25278 56.6782 5 56.5389C5.0316 56.3564 5.05003 56.1739 5.05529 55.9914C5.06583 55.8088 5.07109 55.6503 5.07109 55.5159C5.12902 55.5014 5.19748 55.4918 5.27647 55.487C5.35547 55.4774 5.42919 55.4726 5.49765 55.4726C5.51345 55.7176 5.56085 55.9289 5.63984 56.1066C5.7241 56.2795 5.85312 56.414 6.0269 56.5101C6.20595 56.6061 6.43503 56.6542 6.71413 56.6542C7.0775 56.6542 7.33554 56.5821 7.48826 56.438C7.64624 56.2891 7.72523 56.1114 7.72523 55.9049C7.72523 55.6936 7.66204 55.5207 7.53565 55.3862C7.40927 55.2469 7.24601 55.1292 7.0459 55.0331C6.84579 54.9371 6.63251 54.8434 6.40606 54.7522C6.18488 54.6609 5.97424 54.5552 5.77412 54.4352C5.57401 54.3151 5.41076 54.1662 5.28437 53.9885C5.15798 53.806 5.09479 53.5754 5.09479 53.2968C5.09479 53.0279 5.15798 52.7973 5.28437 52.6052C5.41603 52.4083 5.60034 52.2594 5.83732 52.1585C6.0743 52.0528 6.35603 52 6.68254 52C6.86685 52 7.04063 52.0144 7.20388 52.0432C7.3724 52.072 7.52512 52.1105 7.66204 52.1585C7.79896 52.2065 7.91218 52.2594 8.00171 52.317C8.00171 52.4563 8.00434 52.6172 8.00961 52.7997C8.01487 52.9822 8.02804 53.1383 8.0491 53.268C7.99117 53.2872 7.92008 53.304 7.83582 53.3184C7.75683 53.3281 7.68047 53.3329 7.60675 53.3329C7.55408 53.0543 7.48562 52.8429 7.40137 52.6988C7.31711 52.5548 7.21442 52.4563 7.0933 52.4035C6.97217 52.3458 6.83262 52.317 6.67464 52.317C6.39553 52.317 6.17699 52.3794 6.019 52.5043C5.86102 52.6292 5.78202 52.8045 5.78202 53.0303C5.78202 53.2416 5.84522 53.4169 5.97161 53.5562C6.09799 53.6955 6.26124 53.8156 6.46136 53.9164C6.66147 54.0173 6.87212 54.1158 7.0933 54.2118C7.31447 54.3031 7.52512 54.4087 7.72523 54.5288C7.92535 54.6441 8.0886 54.7882 8.21499 54.9611C8.34137 55.134 8.40457 55.3525 8.40457 55.6167C8.40457 55.8569 8.34137 56.0826 8.21499 56.2939C8.0886 56.5053 7.89375 56.6758 7.63044 56.8055C7.36714 56.9352 7.02484 57 6.60354 57Z" fill="#46413D"/>
<path d="M9.84821 52.9798C9.84821 52.8165 9.83241 52.6916 9.80082 52.6052C9.76922 52.5187 9.71393 52.4563 9.63493 52.4179C9.55594 52.3794 9.44535 52.3578 9.30317 52.353C9.28737 52.3146 9.27684 52.269 9.27157 52.2161C9.2663 52.1633 9.26367 52.1057 9.26367 52.0432C9.36373 52.048 9.46378 52.0528 9.56384 52.0576C9.66916 52.0576 9.77712 52.06 9.88771 52.0648C9.9983 52.0648 10.1089 52.0648 10.2195 52.0648C10.3353 52.0648 10.4459 52.0648 10.5512 52.0648C10.6566 52.06 10.7593 52.0576 10.8593 52.0576C10.9646 52.0528 11.07 52.048 11.1753 52.0432C11.1753 52.1057 11.1727 52.1633 11.1674 52.2161C11.1621 52.269 11.1516 52.3146 11.1358 52.353C10.9989 52.3578 10.8883 52.3794 10.804 52.4179C10.725 52.4563 10.6697 52.5187 10.6381 52.6052C10.6065 52.6916 10.5907 52.8165 10.5907 52.9798V56.0202C10.5907 56.1787 10.6065 56.3036 10.6381 56.3948C10.6697 56.4813 10.725 56.5437 10.804 56.5821C10.8883 56.6158 10.9989 56.6374 11.1358 56.647C11.1516 56.6854 11.1621 56.731 11.1674 56.7839C11.1727 56.8319 11.1753 56.8895 11.1753 56.9568C11.0173 56.9472 10.8567 56.94 10.6934 56.9352C10.5302 56.9352 10.3722 56.9352 10.2195 56.9352C10.0668 56.9352 9.90351 56.9352 9.72972 56.9352C9.55594 56.94 9.40059 56.9472 9.26367 56.9568C9.26367 56.8895 9.2663 56.8319 9.27157 56.7839C9.27684 56.731 9.28737 56.6854 9.30317 56.647C9.44535 56.6374 9.55594 56.6158 9.63493 56.5821C9.71393 56.5437 9.76922 56.4813 9.80082 56.3948C9.83241 56.3036 9.84821 56.1787 9.84821 56.0202V52.9798Z" fill="#46413D"/>
<path d="M16.306 56.9784L12.6091 52.5764C12.5354 52.4899 12.4643 52.4347 12.3958 52.4107C12.3274 52.3818 12.2273 52.3626 12.0957 52.353C12.0799 52.3002 12.0693 52.245 12.0641 52.1873C12.0588 52.1297 12.0562 52.0817 12.0562 52.0432C12.1088 52.048 12.1668 52.0528 12.23 52.0576C12.2984 52.0576 12.3669 52.06 12.4353 52.0648C12.5091 52.0648 12.5775 52.0648 12.6407 52.0648C12.7408 52.0648 12.8356 52.0624 12.9251 52.0576C13.0199 52.0528 13.1015 52.048 13.17 52.0432L16.3218 55.8545L16.306 56.9784ZM12.0562 56.9568C12.0562 56.8943 12.0588 56.8391 12.0641 56.7911C12.0693 56.7382 12.0799 56.6902 12.0957 56.647C12.2379 56.647 12.3484 56.6158 12.4274 56.5533C12.5064 56.4909 12.5617 56.3828 12.5933 56.2291C12.6249 56.0706 12.6407 55.8569 12.6407 55.5879V52.5403H13.0436V55.5879C13.0436 55.8569 13.0594 56.0706 13.091 56.2291C13.1226 56.3828 13.1779 56.4909 13.2569 56.5533C13.3358 56.6158 13.4464 56.647 13.5886 56.647C13.6044 56.6902 13.615 56.7358 13.6202 56.7839C13.6255 56.8319 13.6281 56.8895 13.6281 56.9568C13.5491 56.952 13.4622 56.9472 13.3674 56.9424C13.2779 56.9424 13.1884 56.94 13.0989 56.9352C13.0093 56.9352 12.9251 56.9352 12.8461 56.9352C12.7724 56.9352 12.6855 56.9352 12.5854 56.9352C12.4854 56.94 12.3879 56.9424 12.2931 56.9424C12.2036 56.9472 12.1246 56.952 12.0562 56.9568ZM16.306 56.9784L16.2428 56.2579V53.3761C16.2428 53.1119 16.227 52.9078 16.1954 52.7637C16.1638 52.6148 16.1085 52.5091 16.0295 52.4467C15.9505 52.3842 15.8399 52.353 15.6977 52.353C15.6819 52.2714 15.6714 52.2113 15.6661 52.1729C15.6609 52.1297 15.6582 52.0865 15.6582 52.0432C15.7372 52.048 15.8188 52.0528 15.9031 52.0576C15.9874 52.0576 16.0716 52.06 16.1559 52.0648C16.2454 52.0648 16.327 52.0648 16.4007 52.0648C16.5113 52.0648 16.6377 52.0624 16.7799 52.0576C16.9221 52.0528 17.0459 52.048 17.1512 52.0432C17.1512 52.0913 17.1485 52.1417 17.1433 52.1945C17.138 52.2474 17.1275 52.3002 17.1117 52.353C16.9958 52.353 16.9037 52.3842 16.8352 52.4467C16.7667 52.5091 16.7167 52.6148 16.6851 52.7637C16.6588 52.9078 16.6456 53.1119 16.6456 53.3761V56.9352C16.6035 56.9496 16.5508 56.9592 16.4876 56.964C16.4244 56.9736 16.3639 56.9784 16.306 56.9784Z" fill="#46413D"/>
<path d="M17.9189 56.9568C17.9189 56.8895 17.9215 56.8319 17.9268 56.7839C17.932 56.731 17.9426 56.6854 17.9584 56.647C18.1006 56.6374 18.2112 56.6134 18.2901 56.5749C18.3691 56.5365 18.4244 56.4693 18.456 56.3732C18.4929 56.2723 18.5113 56.1282 18.5113 55.9409V52.9798C18.5113 52.8165 18.4955 52.6916 18.4639 52.6052C18.4323 52.5187 18.377 52.4563 18.298 52.4179C18.2191 52.3794 18.1085 52.3578 17.9663 52.353C17.9505 52.3146 17.9399 52.269 17.9347 52.2161C17.9294 52.1585 17.9268 52.1009 17.9268 52.0432C18.011 52.048 18.1164 52.0528 18.2427 52.0576C18.3744 52.0576 18.5087 52.06 18.6456 52.0648C18.7878 52.0648 18.9168 52.0648 19.0327 52.0648C19.1854 52.0648 19.3407 52.0624 19.4987 52.0576C19.6567 52.0528 19.8121 52.0504 19.9648 52.0504C20.2439 52.0504 20.5256 52.0696 20.81 52.1081C21.0944 52.1417 21.3656 52.2065 21.6236 52.3026C21.8817 52.3939 22.1107 52.5283 22.3109 52.7061C22.5162 52.879 22.6768 53.1023 22.7927 53.3761C22.9086 53.6451 22.9665 53.9789 22.9665 54.3775C22.9665 54.7666 22.9138 55.1004 22.8085 55.379C22.7032 55.6575 22.561 55.8905 22.3819 56.0778C22.2082 56.2651 22.0133 56.4164 21.7974 56.5317C21.5815 56.647 21.3603 56.7334 21.1339 56.7911C20.9127 56.8487 20.6994 56.8871 20.494 56.9063C20.2886 56.9256 20.1122 56.9352 19.9648 56.9352C19.8173 56.9352 19.6462 56.9352 19.4513 56.9352C19.2617 56.9352 19.0669 56.9352 18.8668 56.9352C18.6719 56.94 18.4903 56.9424 18.3217 56.9424C18.1532 56.9472 18.0189 56.952 17.9189 56.9568ZM19.9648 56.611C20.2807 56.611 20.5704 56.5773 20.8337 56.5101C21.1023 56.438 21.334 56.3228 21.5288 56.1643C21.7289 56.001 21.8817 55.7824 21.987 55.5086C22.0976 55.2349 22.1529 54.8939 22.1529 54.4856C22.1529 54.0965 22.087 53.7651 21.9554 53.4914C21.829 53.2128 21.6552 52.9894 21.434 52.8213C21.2181 52.6484 20.9706 52.5235 20.6915 52.4467C20.4177 52.365 20.1333 52.3242 19.8384 52.3242C19.7225 52.3242 19.5961 52.3338 19.4592 52.353C19.3223 52.3674 19.2328 52.3866 19.1907 52.4107L19.2538 52.2233V55.9409C19.2538 56.1186 19.2723 56.2555 19.3091 56.3516C19.346 56.4476 19.4145 56.5149 19.5145 56.5533C19.6198 56.5917 19.7699 56.611 19.9648 56.611Z" fill="#46413D"/>
<path d="M24.2736 52.9798C24.2736 52.8165 24.2578 52.6916 24.2262 52.6052C24.1946 52.5187 24.1393 52.4563 24.0603 52.4179C23.9813 52.3794 23.8707 52.3578 23.7285 52.353C23.7127 52.3146 23.7022 52.269 23.6969 52.2161C23.6917 52.1633 23.689 52.1057 23.689 52.0432C23.7891 52.048 23.8891 52.0528 23.9892 52.0576C24.0945 52.0576 24.2025 52.06 24.3131 52.0648C24.4236 52.0648 24.5342 52.0648 24.6448 52.0648C24.7607 52.0648 24.8713 52.0648 24.9766 52.0648C25.0819 52.06 25.1846 52.0576 25.2847 52.0576C25.39 52.0528 25.4953 52.048 25.6006 52.0432C25.6006 52.1057 25.598 52.1633 25.5927 52.2161C25.5875 52.269 25.5769 52.3146 25.5611 52.353C25.4242 52.3578 25.3136 52.3794 25.2294 52.4179C25.1504 52.4563 25.0951 52.5187 25.0635 52.6052C25.0319 52.6916 25.0161 52.8165 25.0161 52.9798V56.0202C25.0161 56.1787 25.0319 56.3036 25.0635 56.3948C25.0951 56.4813 25.1504 56.5437 25.2294 56.5821C25.3136 56.6158 25.4242 56.6374 25.5611 56.647C25.5769 56.6854 25.5875 56.731 25.5927 56.7839C25.598 56.8319 25.6006 56.8895 25.6006 56.9568C25.4426 56.9472 25.282 56.94 25.1188 56.9352C24.9555 56.9352 24.7975 56.9352 24.6448 56.9352C24.4921 56.9352 24.3289 56.9352 24.1551 56.9352C23.9813 56.94 23.8259 56.9472 23.689 56.9568C23.689 56.8895 23.6917 56.8319 23.6969 56.7839C23.7022 56.731 23.7127 56.6854 23.7285 56.647C23.8707 56.6374 23.9813 56.6158 24.0603 56.5821C24.1393 56.5437 24.1946 56.4813 24.2262 56.3948C24.2578 56.3036 24.2736 56.1787 24.2736 56.0202V52.9798Z" fill="#46413D"/>
<path d="M28.8276 57C28.3378 57 27.9034 56.8943 27.5242 56.683C27.1503 56.4669 26.8554 56.1691 26.6395 55.7896C26.4236 55.4054 26.3156 54.9635 26.3156 54.464C26.3156 54.0509 26.3894 53.6907 26.5368 53.3833C26.6843 53.0759 26.8817 52.8189 27.1293 52.6124C27.382 52.4059 27.6638 52.2522 27.9745 52.1513C28.2904 52.0504 28.6169 52 28.954 52C29.2857 52 29.5886 52.0312 29.8624 52.0937C30.1362 52.1561 30.418 52.2498 30.7076 52.3746C30.6707 52.5427 30.647 52.7229 30.6365 52.915C30.626 53.1023 30.6207 53.2944 30.6207 53.4914C30.5523 53.5154 30.4864 53.5322 30.4232 53.5418C30.36 53.5514 30.2863 53.5562 30.2021 53.5562C30.1915 53.2152 30.1362 52.9534 30.0362 52.7709C29.9361 52.5884 29.7992 52.4635 29.6254 52.3963C29.4516 52.329 29.2489 52.2954 29.0172 52.2954C28.6854 52.2954 28.401 52.3506 28.1641 52.4611C27.9271 52.5716 27.7322 52.7205 27.5795 52.9078C27.4321 53.0903 27.3215 53.2992 27.2477 53.5346C27.1793 53.7699 27.1451 54.0149 27.1451 54.2695C27.1451 54.6969 27.224 55.086 27.382 55.4366C27.5453 55.7824 27.777 56.0562 28.0772 56.2579C28.3773 56.4597 28.7381 56.5605 29.1594 56.5605C29.4121 56.5605 29.6702 56.5221 29.9335 56.4452C30.1968 56.3684 30.439 56.2651 30.6602 56.1354C30.6918 56.1595 30.7208 56.1955 30.7471 56.2435C30.7787 56.2867 30.7971 56.3252 30.8024 56.3588C30.4917 56.5797 30.1836 56.743 29.8782 56.8487C29.578 56.9496 29.2278 57 28.8276 57Z" fill="#46413D"/>
<path d="M33.8735 52.0216L35.7535 55.9553C35.8431 56.133 35.9168 56.2699 35.9747 56.366C36.0327 56.4621 36.0906 56.5293 36.1485 56.5677C36.2117 56.6061 36.2828 56.6326 36.3618 56.647C36.3829 56.7094 36.396 56.7622 36.4013 56.8055C36.4066 56.8487 36.4092 56.8991 36.4092 56.9568C36.3565 56.952 36.2749 56.9472 36.1643 56.9424C36.0537 56.9424 35.9379 56.94 35.8167 56.9352C35.6956 56.9352 35.5929 56.9352 35.5087 56.9352C35.4455 56.9352 35.3718 56.9352 35.2875 56.9352C35.2032 56.94 35.1163 56.9424 35.0268 56.9424C34.9373 56.9472 34.8557 56.9496 34.7819 56.9496C34.7135 56.9544 34.6582 56.9568 34.6161 56.9568C34.6161 56.8991 34.6187 56.8439 34.624 56.7911C34.6345 56.7382 34.6503 56.6902 34.6714 56.647C34.8873 56.623 35.0137 56.5797 35.0505 56.5173C35.0926 56.45 35.061 56.306 34.9557 56.085L33.8577 53.7435C33.7893 53.5946 33.7287 53.4625 33.6761 53.3473C33.6234 53.232 33.5602 53.0855 33.4865 52.9078H33.526C33.4628 53.0903 33.4048 53.2464 33.3522 53.3761C33.3048 53.501 33.2574 53.621 33.21 53.7363L32.3095 55.8761C32.1936 56.1595 32.1568 56.3564 32.1989 56.4669C32.2463 56.5725 32.3779 56.6326 32.5939 56.647C32.6149 56.6902 32.6281 56.7382 32.6334 56.7911C32.6439 56.8439 32.6492 56.8991 32.6492 56.9568C32.5912 56.952 32.5201 56.9472 32.4359 56.9424C32.3516 56.9424 32.2621 56.94 32.1673 56.9352C32.0778 56.9352 31.9882 56.9352 31.8987 56.9352C31.7671 56.9352 31.6433 56.9376 31.5275 56.9424C31.4116 56.9472 31.3168 56.952 31.2431 56.9568C31.2431 56.9087 31.2457 56.8583 31.251 56.8055C31.2615 56.7478 31.2773 56.6974 31.2984 56.6542C31.3932 56.635 31.4722 56.6013 31.5354 56.5533C31.5986 56.5053 31.6591 56.4284 31.717 56.3228C31.7802 56.2123 31.8513 56.0634 31.9303 55.8761L33.5655 52.0504C33.6181 52.0408 33.6655 52.0336 33.7076 52.0288C33.755 52.024 33.8103 52.0216 33.8735 52.0216ZM34.5924 55.0259L34.6635 55.3501C34.3106 55.3501 33.9315 55.3525 33.526 55.3573C33.1257 55.3622 32.7624 55.3694 32.4359 55.379L32.5623 55.0259H34.5924Z" fill="#46413D"/>
<path d="M38.6312 56.9568C38.6312 56.8895 38.6338 56.8319 38.6391 56.7839C38.6444 56.731 38.6549 56.6854 38.6707 56.647C38.8129 56.6374 38.9235 56.6158 39.0025 56.5821C39.0815 56.5437 39.1368 56.4813 39.1684 56.3948C39.2 56.3036 39.2158 56.1787 39.2158 56.0202V52.9798C39.2158 52.8165 39.2 52.6916 39.1684 52.6052C39.1368 52.5187 39.0815 52.4563 39.0025 52.4179C38.9235 52.3794 38.8129 52.3578 38.6707 52.353C38.6549 52.3146 38.6444 52.269 38.6391 52.2161C38.6338 52.1633 38.6312 52.1057 38.6312 52.0432C38.8366 52.0528 39.0341 52.06 39.2237 52.0648C39.4185 52.0648 39.5791 52.0648 39.7055 52.0648C39.7792 52.0648 39.8819 52.0648 40.0136 52.0648C40.1505 52.06 40.2848 52.0576 40.4164 52.0576C40.5481 52.0528 40.6455 52.0504 40.7087 52.0504C41.1458 52.0504 41.496 52.1153 41.7593 52.245C42.0226 52.3746 42.2122 52.5451 42.3281 52.7565C42.4439 52.9678 42.5018 53.1984 42.5018 53.4481C42.5018 53.7219 42.4334 53.9861 42.2965 54.2406C42.1648 54.4952 41.9673 54.7041 41.704 54.8674C41.4407 55.0307 41.1089 55.1124 40.7087 55.1124C40.4875 55.1124 40.3032 55.086 40.1558 55.0331C40.1452 54.9803 40.14 54.9299 40.14 54.8818C40.14 54.8338 40.1479 54.7858 40.1637 54.7378C40.2321 54.7522 40.3006 54.7642 40.369 54.7738C40.4375 54.7786 40.5086 54.781 40.5823 54.781C40.7772 54.781 40.9589 54.7498 41.1274 54.6873C41.2959 54.6249 41.4328 54.5144 41.5381 54.3559C41.6435 54.1926 41.6961 53.9597 41.6961 53.6571C41.6961 53.2728 41.5908 52.963 41.3801 52.7277C41.1748 52.4875 40.8351 52.3674 40.3611 52.3674C40.3032 52.3674 40.2348 52.3722 40.1558 52.3818C40.082 52.3866 39.9767 52.4035 39.8398 52.4323L39.9583 52.3242V55.8761C39.9583 56.0826 39.982 56.2411 40.0294 56.3516C40.0768 56.4573 40.1531 56.5317 40.2585 56.5749C40.3638 56.6134 40.4981 56.6374 40.6613 56.647C40.6771 56.6854 40.6876 56.731 40.6929 56.7839C40.6982 56.8319 40.7008 56.8895 40.7008 56.9568C40.6218 56.952 40.527 56.9472 40.4164 56.9424C40.3111 56.9424 40.1979 56.94 40.0768 56.9352C39.9557 56.9352 39.8319 56.9352 39.7055 56.9352C39.5844 56.9352 39.4527 56.9352 39.3105 56.9352C39.1684 56.94 39.0367 56.9424 38.9156 56.9424C38.7945 56.9472 38.6997 56.952 38.6312 56.9568Z" fill="#46413D"/>
<path d="M47.0206 57C46.8626 56.8079 46.7231 56.6326 46.602 56.4741C46.4861 56.3156 46.3466 56.1186 46.1833 55.8833C46.078 55.7296 45.9753 55.5903 45.8752 55.4654C45.7804 55.3357 45.6646 55.2037 45.5277 55.0692C45.3908 54.9347 45.2143 54.7858 44.9984 54.6225L45.2038 54.7161C45.0669 54.7209 44.9405 54.7233 44.8246 54.7233C44.7088 54.7233 44.5982 54.7209 44.4929 54.7161V54.3775C44.5666 54.3871 44.6351 54.3943 44.6983 54.3991C44.7614 54.4039 44.8273 54.4063 44.8957 54.4063C45.1854 54.4063 45.446 54.3703 45.6778 54.2983C45.9095 54.2214 46.0938 54.1037 46.2307 53.9452C46.3676 53.7867 46.4361 53.5826 46.4361 53.3329C46.4361 53.0495 46.336 52.8189 46.1359 52.6412C45.9411 52.4587 45.6067 52.3674 45.1327 52.3674C45.0116 52.3674 44.9036 52.3722 44.8088 52.3818C44.7141 52.3915 44.614 52.4083 44.5087 52.4323L44.5482 52.2954V56.0202C44.5482 56.1787 44.564 56.3036 44.5956 56.3948C44.6272 56.4813 44.6825 56.5437 44.7614 56.5821C44.8457 56.6158 44.9563 56.6374 45.0932 56.647C45.109 56.6902 45.1195 56.7406 45.1248 56.7983C45.1301 56.8511 45.1327 56.9039 45.1327 56.9568C45.0169 56.9472 44.8957 56.94 44.7693 56.9352C44.6482 56.9352 44.535 56.9352 44.4297 56.9352C44.3244 56.9352 44.2375 56.9352 44.169 56.9352C44.0321 56.9352 43.8688 56.9352 43.6793 56.9352C43.4949 56.94 43.3422 56.9472 43.2211 56.9568C43.2211 56.9039 43.2237 56.8511 43.229 56.7983C43.2343 56.7454 43.2448 56.695 43.2606 56.647C43.4028 56.6374 43.5134 56.6158 43.5924 56.5821C43.6714 56.5437 43.7267 56.4813 43.7582 56.3948C43.7898 56.3036 43.8056 56.1787 43.8056 56.0202V52.9798C43.8056 52.8165 43.7898 52.6916 43.7582 52.6052C43.7267 52.5139 43.6714 52.4491 43.5924 52.4107C43.5134 52.3722 43.4028 52.353 43.2606 52.353C43.2448 52.305 43.2343 52.257 43.229 52.2089C43.2237 52.1609 43.2211 52.1081 43.2211 52.0504C43.2738 52.0504 43.3501 52.0528 43.4502 52.0576C43.5555 52.0576 43.6687 52.06 43.7898 52.0648C43.9162 52.0648 44.0321 52.0648 44.1374 52.0648C44.2901 52.0648 44.4481 52.0648 44.6114 52.0648C44.7746 52.06 44.9247 52.0576 45.0616 52.0576C45.1985 52.0528 45.3039 52.0504 45.3776 52.0504C45.8305 52.0504 46.1886 52.1033 46.4519 52.2089C46.7205 52.3146 46.9127 52.4587 47.0285 52.6412C47.1496 52.8189 47.2102 53.0183 47.2102 53.2392C47.2102 53.4745 47.1523 53.6835 47.0364 53.866C46.9258 54.0437 46.7626 54.195 46.5467 54.3199C46.336 54.44 46.0806 54.5312 45.7804 54.5937L45.8199 54.5072C45.9411 54.5889 46.0438 54.6681 46.128 54.745C46.2175 54.817 46.2992 54.8963 46.3729 54.9827C46.4519 55.0692 46.5335 55.1724 46.6178 55.2925C46.7073 55.4078 46.81 55.5495 46.9258 55.7176C47.0733 55.9193 47.2128 56.0874 47.3445 56.2219C47.4762 56.3516 47.6157 56.45 47.7632 56.5173C47.9159 56.5797 48.0923 56.6158 48.2924 56.6254C48.2924 56.683 48.2898 56.7358 48.2845 56.7839C48.2845 56.8319 48.2766 56.8823 48.2608 56.9352C48.066 56.9352 47.8579 56.9376 47.6368 56.9424C47.4209 56.952 47.2155 56.9712 47.0206 57Z" fill="#46413D"/>
<path d="M51.0618 57C50.5405 57 50.085 56.8895 49.6953 56.6686C49.3056 56.4476 49.0001 56.1475 48.7789 55.768C48.563 55.3886 48.4551 54.9611 48.4551 54.4856C48.4551 54.1158 48.5209 53.7795 48.6526 53.4769C48.7895 53.1744 48.9764 52.9126 49.2134 52.6916C49.4504 52.4707 49.7269 52.3002 50.0428 52.1801C50.3588 52.06 50.6985 52 51.0618 52C51.5674 52 52.015 52.1057 52.4047 52.317C52.7997 52.5235 53.1104 52.8141 53.3368 53.1888C53.5632 53.5586 53.6765 53.9909 53.6765 54.4856C53.6765 54.841 53.6133 55.1724 53.4869 55.4798C53.3605 55.7824 53.1788 56.049 52.9418 56.2795C52.7101 56.5053 52.4337 56.683 52.1124 56.8127C51.7965 56.9376 51.4463 57 51.0618 57ZM51.2198 56.647C51.5621 56.647 51.8544 56.5605 52.0966 56.3876C52.3441 56.2099 52.5337 55.9721 52.6654 55.6744C52.797 55.3718 52.8629 55.0379 52.8629 54.6729C52.8629 54.2406 52.776 53.8492 52.6022 53.4986C52.4337 53.1431 52.2019 52.8622 51.907 52.6556C51.6121 52.4491 51.2751 52.3458 50.8959 52.3458C50.5852 52.3458 50.3061 52.4275 50.0586 52.5908C49.8164 52.7493 49.6242 52.975 49.482 53.268C49.3398 53.561 49.2687 53.902 49.2687 54.2911C49.2687 54.5937 49.3108 54.8866 49.3951 55.17C49.4793 55.4534 49.6031 55.7056 49.7664 55.9265C49.9349 56.1475 50.1402 56.3228 50.3825 56.4524C50.6247 56.5821 50.9038 56.647 51.2198 56.647Z" fill="#46413D"/>
<path d="M54.3988 56.9568C54.3988 56.8895 54.4015 56.8319 54.4067 56.7839C54.412 56.731 54.4225 56.6854 54.4383 56.647C54.5805 56.6374 54.6911 56.6158 54.7701 56.5821C54.8491 56.5437 54.9044 56.4813 54.936 56.3948C54.9676 56.3036 54.9834 56.1787 54.9834 56.0202V52.9798C54.9834 52.8165 54.9676 52.6916 54.936 52.6052C54.9044 52.5187 54.8491 52.4563 54.7701 52.4179C54.6911 52.3794 54.5805 52.3578 54.4383 52.353C54.4225 52.3146 54.412 52.269 54.4067 52.2161C54.4015 52.1633 54.3988 52.1057 54.3988 52.0432C54.4883 52.048 54.5884 52.0528 54.699 52.0576C54.8096 52.0576 54.9254 52.06 55.0466 52.0648C55.1729 52.0648 55.2941 52.0648 55.4099 52.0648C55.5258 52.0648 55.6311 52.0648 55.7259 52.0648V55.8761C55.7259 56.0826 55.7496 56.2411 55.797 56.3516C55.8444 56.4573 55.9207 56.5317 56.0261 56.5749C56.1314 56.6134 56.2657 56.6374 56.4289 56.647C56.4447 56.6854 56.4552 56.731 56.4605 56.7839C56.4658 56.8319 56.4684 56.8895 56.4684 56.9568C56.3894 56.952 56.2946 56.9472 56.184 56.9424C56.0787 56.9424 55.9655 56.94 55.8444 56.9352C55.7233 56.9352 55.5995 56.9352 55.4731 56.9352C55.2888 56.9352 55.0887 56.9352 54.8728 56.9352C54.6621 56.94 54.5041 56.9472 54.3988 56.9568ZM57.5269 55.4582C57.4585 55.4582 57.3953 55.4558 57.3373 55.451C57.2794 55.4462 57.2215 55.4366 57.1635 55.4222C57.1425 55.1724 57.0688 55.0043 56.9424 54.9179C56.8212 54.8266 56.5974 54.781 56.2709 54.781H55.7022V54.4712H56.2709C56.5974 54.4712 56.8239 54.4328 56.9503 54.3559C57.0767 54.2791 57.1425 54.123 57.1477 53.8876C57.2162 53.8684 57.2794 53.8564 57.3373 53.8516C57.3953 53.842 57.4585 53.8372 57.5269 53.8372C57.5216 53.9573 57.5164 54.0869 57.5111 54.2262C57.5111 54.3655 57.5111 54.4976 57.5111 54.6225C57.5111 54.7474 57.5111 54.8866 57.5111 55.0403C57.5164 55.194 57.5216 55.3333 57.5269 55.4582ZM57.7244 53.268C57.7139 53.1191 57.6717 52.975 57.598 52.8357C57.5243 52.6964 57.3953 52.5812 57.2109 52.4899C57.0319 52.3987 56.7712 52.353 56.4289 52.353H55.5284L55.7022 52.0648C56.1182 52.0648 56.4737 52.0648 56.7686 52.0648C57.0688 52.06 57.3136 52.0552 57.5032 52.0504C57.6928 52.0456 57.8297 52.0432 57.914 52.0432C57.9245 52.1489 57.9377 52.2714 57.9535 52.4107C57.9693 52.55 57.9877 52.6868 58.0088 52.8213C58.0298 52.9558 58.0535 53.0759 58.0799 53.1816C58.0377 53.2152 57.9851 53.2392 57.9219 53.2536C57.8639 53.2632 57.7981 53.268 57.7244 53.268Z" fill="#46413D"/>
<path d="M59.4112 52.9798C59.4112 52.8165 59.3955 52.6916 59.3639 52.6052C59.3323 52.5187 59.277 52.4563 59.198 52.4179C59.119 52.3794 59.0084 52.3578 58.8662 52.353C58.8504 52.3146 58.8399 52.269 58.8346 52.2161C58.8293 52.1633 58.8267 52.1057 58.8267 52.0432C58.9268 52.048 59.0268 52.0528 59.1269 52.0576C59.2322 52.0576 59.3402 52.06 59.4507 52.0648C59.5613 52.0648 59.6719 52.0648 59.7825 52.0648C59.8984 52.0648 60.009 52.0648 60.1143 52.0648C60.2196 52.06 60.3223 52.0576 60.4224 52.0576C60.5277 52.0528 60.633 52.048 60.7383 52.0432C60.7383 52.1057 60.7357 52.1633 60.7304 52.2161C60.7252 52.269 60.7146 52.3146 60.6988 52.353C60.5619 52.3578 60.4513 52.3794 60.3671 52.4179C60.2881 52.4563 60.2328 52.5187 60.2012 52.6052C60.1696 52.6916 60.1538 52.8165 60.1538 52.9798V56.0202C60.1538 56.1787 60.1696 56.3036 60.2012 56.3948C60.2328 56.4813 60.2881 56.5437 60.3671 56.5821C60.4513 56.6158 60.5619 56.6374 60.6988 56.647C60.7146 56.6854 60.7252 56.731 60.7304 56.7839C60.7357 56.8319 60.7383 56.8895 60.7383 56.9568C60.5803 56.9472 60.4197 56.94 60.2565 56.9352C60.0932 56.9352 59.9352 56.9352 59.7825 56.9352C59.6298 56.9352 59.4665 56.9352 59.2928 56.9352C59.119 56.94 58.9636 56.9472 58.8267 56.9568C58.8267 56.8895 58.8293 56.8319 58.8346 56.7839C58.8399 56.731 58.8504 56.6854 58.8662 56.647C59.0084 56.6374 59.119 56.6158 59.198 56.5821C59.277 56.5437 59.3323 56.4813 59.3639 56.3948C59.3955 56.3036 59.4112 56.1787 59.4112 56.0202V52.9798Z" fill="#46413D"/>
<path d="M63.3175 57C62.991 57 62.704 56.9592 62.4565 56.8775C62.2143 56.7911 61.9668 56.6782 61.714 56.5389C61.7456 56.3564 61.764 56.1739 61.7693 55.9914C61.7798 55.8088 61.7851 55.6503 61.7851 55.5159C61.843 55.5014 61.9115 55.4918 61.9905 55.487C62.0695 55.4774 62.1432 55.4726 62.2117 55.4726C62.2274 55.7176 62.2748 55.9289 62.3538 56.1066C62.4381 56.2795 62.5671 56.414 62.7409 56.5101C62.9199 56.6061 63.149 56.6542 63.4281 56.6542C63.7915 56.6542 64.0495 56.5821 64.2023 56.438C64.3602 56.2891 64.4392 56.1114 64.4392 55.9049C64.4392 55.6936 64.376 55.5207 64.2496 55.3862C64.1233 55.2469 63.96 55.1292 63.7599 55.0331C63.5598 54.9371 63.3465 54.8434 63.1201 54.7522C62.8989 54.6609 62.6882 54.5552 62.4881 54.4352C62.288 54.3151 62.1248 54.1662 61.9984 53.9885C61.872 53.806 61.8088 53.5754 61.8088 53.2968C61.8088 53.0279 61.872 52.7973 61.9984 52.6052C62.13 52.4083 62.3143 52.2594 62.5513 52.1585C62.7883 52.0528 63.07 52 63.3965 52C63.5809 52 63.7546 52.0144 63.9179 52.0432C64.0864 52.072 64.2391 52.1105 64.376 52.1585C64.513 52.2065 64.6262 52.2594 64.7157 52.317C64.7157 52.4563 64.7183 52.6172 64.7236 52.7997C64.7289 52.9822 64.742 53.1383 64.7631 53.268C64.7052 53.2872 64.6341 53.304 64.5498 53.3184C64.4708 53.3281 64.3945 53.3329 64.3207 53.3329C64.2681 53.0543 64.1996 52.8429 64.1154 52.6988C64.0311 52.5548 63.9284 52.4563 63.8073 52.4035C63.6862 52.3458 63.5466 52.317 63.3886 52.317C63.1095 52.317 62.891 52.3794 62.733 52.5043C62.575 52.6292 62.496 52.8045 62.496 53.0303C62.496 53.2416 62.5592 53.4169 62.6856 53.5562C62.812 53.6955 62.9752 53.8156 63.1754 53.9164C63.3755 54.0173 63.5861 54.1158 63.8073 54.2118C64.0285 54.3031 64.2391 54.4087 64.4392 54.5288C64.6393 54.6441 64.8026 54.7882 64.929 54.9611C65.0554 55.134 65.1186 55.3525 65.1186 55.6167C65.1186 55.8569 65.0554 56.0826 64.929 56.2939C64.8026 56.5053 64.6077 56.6758 64.3444 56.8055C64.0811 56.9352 63.7388 57 63.3175 57Z" fill="#46413D"/>
<path d="M67.676 57C67.3495 57 67.0625 56.9592 66.815 56.8775C66.5727 56.7911 66.3252 56.6782 66.0725 56.5389C66.1041 56.3564 66.1225 56.1739 66.1278 55.9914C66.1383 55.8088 66.1436 55.6503 66.1436 55.5159C66.2015 55.5014 66.2699 55.4918 66.3489 55.487C66.4279 55.4774 66.5017 55.4726 66.5701 55.4726C66.5859 55.7176 66.6333 55.9289 66.7123 56.1066C66.7966 56.2795 66.9256 56.414 67.0994 56.5101C67.2784 56.6061 67.5075 56.6542 67.7866 56.6542C68.15 56.6542 68.408 56.5821 68.5607 56.438C68.7187 56.2891 68.7977 56.1114 68.7977 55.9049C68.7977 55.6936 68.7345 55.5207 68.6081 55.3862C68.4817 55.2469 68.3185 55.1292 68.1184 55.0331C67.9182 54.9371 67.705 54.8434 67.4785 54.7522C67.2573 54.6609 67.0467 54.5552 66.8466 54.4352C66.6465 54.3151 66.4832 54.1662 66.3568 53.9885C66.2304 53.806 66.1672 53.5754 66.1672 53.2968C66.1672 53.0279 66.2304 52.7973 66.3568 52.6052C66.4885 52.4083 66.6728 52.2594 66.9098 52.1585C67.1468 52.0528 67.4285 52 67.755 52C67.9393 52 68.1131 52.0144 68.2763 52.0432C68.4449 52.072 68.5976 52.1105 68.7345 52.1585C68.8714 52.2065 68.9846 52.2594 69.0742 52.317C69.0742 52.4563 69.0768 52.6172 69.0821 52.7997C69.0873 52.9822 69.1005 53.1383 69.1216 53.268C69.0636 53.2872 68.9925 53.304 68.9083 53.3184C68.8293 53.3281 68.7529 53.3329 68.6792 53.3329C68.6265 53.0543 68.5581 52.8429 68.4738 52.6988C68.3896 52.5548 68.2869 52.4563 68.1658 52.4035C68.0446 52.3458 67.9051 52.317 67.7471 52.317C67.468 52.317 67.2494 52.3794 67.0915 52.5043C66.9335 52.6292 66.8545 52.8045 66.8545 53.0303C66.8545 53.2416 66.9177 53.4169 67.0441 53.5562C67.1704 53.6955 67.3337 53.8156 67.5338 53.9164C67.7339 54.0173 67.9446 54.1158 68.1658 54.2118C68.3869 54.3031 68.5976 54.4087 68.7977 54.5288C68.9978 54.6441 69.1611 54.7882 69.2874 54.9611C69.4138 55.134 69.477 55.3525 69.477 55.6167C69.477 55.8569 69.4138 56.0826 69.2874 56.2939C69.1611 56.5053 68.9662 56.6758 68.7029 56.8055C68.4396 56.9352 68.0973 57 67.676 57Z" fill="#46413D"/>
<path d="M70.9207 52.9798C70.9207 52.8165 70.9049 52.6916 70.8733 52.6052C70.8417 52.5187 70.7864 52.4563 70.7074 52.4179C70.6284 52.3794 70.5178 52.3578 70.3756 52.353C70.3598 52.3146 70.3493 52.269 70.344 52.2161C70.3388 52.1633 70.3361 52.1057 70.3361 52.0432C70.4362 52.048 70.5362 52.0528 70.6363 52.0576C70.7416 52.0576 70.8496 52.06 70.9602 52.0648C71.0708 52.0648 71.1813 52.0648 71.2919 52.0648C71.4078 52.0648 71.5184 52.0648 71.6237 52.0648C71.729 52.06 71.8317 52.0576 71.9318 52.0576C72.0371 52.0528 72.1424 52.048 72.2477 52.0432C72.2477 52.1057 72.2451 52.1633 72.2398 52.2161C72.2346 52.269 72.224 52.3146 72.2082 52.353C72.0713 52.3578 71.9607 52.3794 71.8765 52.4179C71.7975 52.4563 71.7422 52.5187 71.7106 52.6052C71.679 52.6916 71.6632 52.8165 71.6632 52.9798V56.0202C71.6632 56.1787 71.679 56.3036 71.7106 56.3948C71.7422 56.4813 71.7975 56.5437 71.8765 56.5821C71.9607 56.6158 72.0713 56.6374 72.2082 56.647C72.224 56.6854 72.2346 56.731 72.2398 56.7839C72.2451 56.8319 72.2477 56.8895 72.2477 56.9568C72.0898 56.9472 71.9291 56.94 71.7659 56.9352C71.6026 56.9352 71.4447 56.9352 71.2919 56.9352C71.1392 56.9352 70.976 56.9352 70.8022 56.9352C70.6284 56.94 70.473 56.9472 70.3361 56.9568C70.3361 56.8895 70.3388 56.8319 70.344 56.7839C70.3493 56.731 70.3598 56.6854 70.3756 56.647C70.5178 56.6374 70.6284 56.6158 70.7074 56.5821C70.7864 56.5437 70.8417 56.4813 70.8733 56.3948C70.9049 56.3036 70.9207 56.1787 70.9207 56.0202V52.9798Z" fill="#46413D"/>
<path d="M75.5695 57C75.0481 57 74.5926 56.8895 74.2029 56.6686C73.8132 56.4476 73.5078 56.1475 73.2866 55.768C73.0707 55.3886 72.9627 54.9611 72.9627 54.4856C72.9627 54.1158 73.0286 53.7795 73.1602 53.4769C73.2971 53.1744 73.4841 52.9126 73.7211 52.6916C73.958 52.4707 74.2345 52.3002 74.5505 52.1801C74.8665 52.06 75.2061 52 75.5695 52C76.075 52 76.5227 52.1057 76.9124 52.317C77.3073 52.5235 77.618 52.8141 77.8445 53.1888C78.0709 53.5586 78.1841 53.9909 78.1841 54.4856C78.1841 54.841 78.1209 55.1724 77.9946 55.4798C77.8682 55.7824 77.6865 56.049 77.4495 56.2795C77.2178 56.5053 76.9413 56.683 76.6201 56.8127C76.3041 56.9376 75.9539 57 75.5695 57ZM75.7275 56.647C76.0698 56.647 76.362 56.5605 76.6043 56.3876C76.8518 56.2099 77.0414 55.9721 77.173 55.6744C77.3047 55.3718 77.3705 55.0379 77.3705 54.6729C77.3705 54.2406 77.2836 53.8492 77.1098 53.4986C76.9413 53.1431 76.7096 52.8622 76.4147 52.6556C76.1198 52.4491 75.7828 52.3458 75.4036 52.3458C75.0929 52.3458 74.8138 52.4275 74.5663 52.5908C74.324 52.7493 74.1318 52.975 73.9896 53.268C73.8475 53.561 73.7764 53.902 73.7764 54.2911C73.7764 54.5937 73.8185 54.8866 73.9027 55.17C73.987 55.4534 74.1108 55.7056 74.274 55.9265C74.4425 56.1475 74.6479 56.3228 74.8902 56.4524C75.1324 56.5821 75.4115 56.647 75.7275 56.647Z" fill="#46413D"/>
<path d="M83.1563 56.9784L79.4594 52.5764C79.3857 52.4899 79.3146 52.4347 79.2461 52.4107C79.1777 52.3818 79.0776 52.3626 78.946 52.353C78.9302 52.3002 78.9196 52.245 78.9144 52.1873C78.9091 52.1297 78.9065 52.0817 78.9065 52.0432C78.9591 52.048 79.0171 52.0528 79.0803 52.0576C79.1487 52.0576 79.2172 52.06 79.2856 52.0648C79.3594 52.0648 79.4278 52.0648 79.491 52.0648C79.5911 52.0648 79.6859 52.0624 79.7754 52.0576C79.8702 52.0528 79.9518 52.048 80.0203 52.0432L83.1721 55.8545L83.1563 56.9784ZM78.9065 56.9568C78.9065 56.8943 78.9091 56.8391 78.9144 56.7911C78.9196 56.7382 78.9302 56.6902 78.946 56.647C79.0882 56.647 79.1988 56.6158 79.2777 56.5533C79.3567 56.4909 79.412 56.3828 79.4436 56.2291C79.4752 56.0706 79.491 55.8569 79.491 55.5879V52.5403H79.8939V55.5879C79.8939 55.8569 79.9097 56.0706 79.9413 56.2291C79.9729 56.3828 80.0282 56.4909 80.1072 56.5533C80.1862 56.6158 80.2967 56.647 80.4389 56.647C80.4547 56.6902 80.4653 56.7358 80.4705 56.7839C80.4758 56.8319 80.4784 56.8895 80.4784 56.9568C80.3994 56.952 80.3125 56.9472 80.2178 56.9424C80.1282 56.9424 80.0387 56.94 79.9492 56.9352C79.8597 56.9352 79.7754 56.9352 79.6964 56.9352C79.6227 56.9352 79.5358 56.9352 79.4357 56.9352C79.3357 56.94 79.2382 56.9424 79.1435 56.9424C79.0539 56.9472 78.9749 56.952 78.9065 56.9568ZM83.1563 56.9784L83.0931 56.2579V53.3761C83.0931 53.1119 83.0773 52.9078 83.0457 52.7637C83.0141 52.6148 82.9588 52.5091 82.8798 52.4467C82.8008 52.3842 82.6902 52.353 82.548 52.353C82.5322 52.2714 82.5217 52.2113 82.5164 52.1729C82.5112 52.1297 82.5085 52.0865 82.5085 52.0432C82.5875 52.048 82.6691 52.0528 82.7534 52.0576C82.8377 52.0576 82.9219 52.06 83.0062 52.0648C83.0957 52.0648 83.1773 52.0648 83.2511 52.0648C83.3616 52.0648 83.488 52.0624 83.6302 52.0576C83.7724 52.0528 83.8962 52.048 84.0015 52.0432C84.0015 52.0913 83.9988 52.1417 83.9936 52.1945C83.9883 52.2474 83.9778 52.3002 83.962 52.353C83.8461 52.353 83.754 52.3842 83.6855 52.4467C83.617 52.5091 83.567 52.6148 83.5354 52.7637C83.5091 52.9078 83.4959 53.1119 83.4959 53.3761V56.9352C83.4538 56.9496 83.4011 56.9592 83.3379 56.964C83.2748 56.9736 83.2142 56.9784 83.1563 56.9784Z" fill="#46413D"/>
<path d="M87.0005 52.0216L88.8805 55.9553C88.97 56.133 89.0437 56.2699 89.1017 56.366C89.1596 56.4621 89.2175 56.5293 89.2755 56.5677C89.3386 56.6061 89.4097 56.6326 89.4887 56.647C89.5098 56.7094 89.523 56.7622 89.5282 56.8055C89.5335 56.8487 89.5361 56.8991 89.5361 56.9568C89.4835 56.952 89.4018 56.9472 89.2913 56.9424C89.1807 56.9424 89.0648 56.94 88.9437 56.9352C88.8226 56.9352 88.7199 56.9352 88.6356 56.9352C88.5724 56.9352 88.4987 56.9352 88.4144 56.9352C88.3302 56.94 88.2433 56.9424 88.1538 56.9424C88.0642 56.9472 87.9826 56.9496 87.9089 56.9496C87.8404 56.9544 87.7851 56.9568 87.743 56.9568C87.743 56.8991 87.7456 56.8439 87.7509 56.7911C87.7614 56.7382 87.7772 56.6902 87.7983 56.647C88.0142 56.623 88.1406 56.5797 88.1775 56.5173C88.2196 56.45 88.188 56.306 88.0827 56.085L86.9847 53.7435C86.9162 53.5946 86.8557 53.4625 86.803 53.3473C86.7503 53.232 86.6871 53.0855 86.6134 52.9078H86.6529C86.5897 53.0903 86.5318 53.2464 86.4791 53.3761C86.4317 53.501 86.3843 53.621 86.3369 53.7363L85.4364 55.8761C85.3206 56.1595 85.2837 56.3564 85.3258 56.4669C85.3732 56.5725 85.5049 56.6326 85.7208 56.647C85.7419 56.6902 85.755 56.7382 85.7603 56.7911C85.7708 56.8439 85.7761 56.8991 85.7761 56.9568C85.7182 56.952 85.6471 56.9472 85.5628 56.9424C85.4786 56.9424 85.389 56.94 85.2942 56.9352C85.2047 56.9352 85.1152 56.9352 85.0257 56.9352C84.894 56.9352 84.7703 56.9376 84.6544 56.9424C84.5385 56.9472 84.4438 56.952 84.37 56.9568C84.37 56.9087 84.3727 56.8583 84.3779 56.8055C84.3885 56.7478 84.4043 56.6974 84.4253 56.6542C84.5201 56.635 84.5991 56.6013 84.6623 56.5533C84.7255 56.5053 84.7861 56.4284 84.844 56.3228C84.9072 56.2123 84.9783 56.0634 85.0573 55.8761L86.6924 52.0504C86.7451 52.0408 86.7925 52.0336 86.8346 52.0288C86.882 52.024 86.9373 52.0216 87.0005 52.0216ZM87.7193 55.0259L87.7904 55.3501C87.4376 55.3501 87.0584 55.3525 86.6529 55.3573C86.2527 55.3622 85.8893 55.3694 85.5628 55.379L85.6892 55.0259H87.7193Z" fill="#46413D"/>
<path d="M92.2701 56.611C92.565 56.611 92.7967 56.5821 92.9652 56.5245C93.1337 56.4669 93.268 56.3708 93.3681 56.2363C93.4734 56.1018 93.5682 55.9241 93.6524 55.7032C93.7314 55.7224 93.7972 55.7464 93.8499 55.7752C93.9026 55.7992 93.9526 55.8329 94 55.8761C93.9421 56.0394 93.892 56.2171 93.8499 56.4092C93.813 56.6013 93.7814 56.7815 93.7551 56.9496C93.6551 56.9448 93.5208 56.9424 93.3523 56.9424C93.189 56.9424 93.0073 56.94 92.8072 56.9352C92.6124 56.9352 92.4175 56.9352 92.2227 56.9352C92.0752 56.9352 91.9041 56.9352 91.7092 56.9352C91.5196 56.9352 91.3248 56.9352 91.1247 56.9352C90.9298 56.94 90.7481 56.9424 90.5796 56.9424C90.4111 56.9472 90.2768 56.952 90.1768 56.9568C90.1768 56.8895 90.1794 56.8319 90.1847 56.7839C90.1899 56.731 90.2005 56.6854 90.2163 56.647C90.3584 56.6374 90.469 56.6134 90.548 56.5749C90.627 56.5365 90.6823 56.4693 90.7139 56.3732C90.7508 56.2723 90.7692 56.1282 90.7692 55.9409V52.9798C90.7692 52.8165 90.7534 52.6916 90.7218 52.6052C90.6902 52.5187 90.6349 52.4563 90.5559 52.4179C90.4769 52.3794 90.3663 52.3578 90.2242 52.353C90.2084 52.3146 90.1978 52.269 90.1926 52.2161C90.1873 52.1585 90.1847 52.1009 90.1847 52.0432C90.29 52.048 90.4006 52.0528 90.5164 52.0576C90.6376 52.0576 90.7534 52.06 90.864 52.0648C90.9746 52.0648 91.0667 52.0648 91.1405 52.0648C91.2563 52.0648 91.3669 52.0648 91.4722 52.0648C91.5776 52.06 91.6802 52.0576 91.7803 52.0576C91.8856 52.0528 91.991 52.048 92.0963 52.0432C92.0963 52.1057 92.0936 52.1633 92.0884 52.2161C92.0831 52.269 92.0726 52.3146 92.0568 52.353C91.9199 52.3578 91.8093 52.3794 91.725 52.4179C91.646 52.4563 91.5907 52.5211 91.5591 52.6124C91.5275 52.7037 91.5117 52.8333 91.5117 53.0014V55.9409C91.5117 56.1186 91.5302 56.2555 91.567 56.3516C91.6039 56.4476 91.6724 56.5149 91.7724 56.5533C91.8777 56.5917 92.0278 56.611 92.2227 56.611H92.2701Z" fill="#46413D"/>
</svg>
