<svg width="14" height="14" viewBox="0 0 14 14" fill="none" xmlns="http://www.w3.org/2000/svg">
<path d="M1.42274 14C1.06232 14 0.701895 13.8672 0.41735 13.5827C-0.132769 13.0325 -0.132769 12.122 0.41735 11.5719L11.1542 0.835075C11.7043 0.284956 12.6148 0.284956 13.1649 0.835075C13.7151 1.38519 13.7151 2.29574 13.1649 2.84585L2.42813 13.5827C2.16256 13.8672 1.78316 14 1.42274 14Z" fill="white"/>
<path d="M12.1596 14C11.7991 14 11.4387 13.8672 11.1542 13.5827L0.41735 2.84585C-0.132769 2.29574 -0.132769 1.38519 0.41735 0.835075C0.96747 0.284956 1.87801 0.284956 2.42813 0.835075L13.1649 11.5719C13.7151 12.122 13.7151 13.0325 13.1649 13.5827C12.8804 13.8672 12.52 14 12.1596 14Z" fill="white"/>
</svg>
