<svg width="89" height="89" viewBox="0 0 89 89" fill="none" xmlns="http://www.w3.org/2000/svg">
<path d="M50.429 5.46295L50.6539 5.64576L50.9243 5.54141L58.0522 2.79076L62.2019 9.20571L62.3593 9.44909L62.6488 9.43341L70.2777 9.02L72.242 16.4033L72.3166 16.6834L72.5967 16.758L79.98 18.7223L79.5666 26.3512L79.5509 26.6407L79.7943 26.7981L86.2092 30.9478L83.4586 38.0757L83.3542 38.3461L83.537 38.571L88.3557 44.5L83.537 50.429L83.3542 50.6539L83.4586 50.9243L86.2092 58.0522L79.7943 62.2019L79.5509 62.3593L79.5666 62.6488L79.98 70.2777L72.5967 72.242L72.3166 72.3166L72.242 72.5967L70.2777 79.98L62.6488 79.5666L62.3593 79.5509L62.2019 79.7943L58.0522 86.2092L50.9243 83.4586L50.6539 83.3542L50.429 83.537L44.5 88.3557L38.571 83.537L38.3461 83.3542L38.0757 83.4586L30.9478 86.2092L26.7981 79.7943L26.6407 79.5509L26.3512 79.5666L18.7223 79.98L16.758 72.5967L16.6834 72.3166L16.4033 72.242L9.02 70.2777L9.43341 62.6488L9.44909 62.3593L9.20571 62.2019L2.79076 58.0522L5.54141 50.9243L5.64576 50.6539L5.46295 50.429L0.644307 44.5L5.46295 38.571L5.64576 38.3461L5.54141 38.0757L2.79076 30.9478L9.20571 26.7981L9.44909 26.6407L9.43341 26.3512L9.02 18.7223L16.4033 16.758L16.6834 16.6834L16.758 16.4033L18.7223 9.02L26.3512 9.43341L26.6407 9.44909L26.7981 9.20571L30.9478 2.79076L38.0757 5.54141L38.3461 5.64576L38.571 5.46295L44.5 0.644307L50.429 5.46295Z" stroke="#E5AFAC"/>
</svg>
