<svg width="17" height="17" viewBox="0 0 17 17" fill="none" xmlns="http://www.w3.org/2000/svg">
<path d="M12.257 2.4947C13.4994 1.66856 14.9589 3.12801 14.1327 4.37043C13.5665 5.22199 14.0915 6.36001 15.101 6.46908C16.5738 6.62821 16.7418 8.69621 15.3169 9.12692C14.3403 9.42213 14.0067 10.6406 14.7017 11.374C15.7158 12.4439 14.5137 14.1528 13.1569 13.5703C12.2269 13.171 11.1907 13.8999 11.2461 14.9143C11.3269 16.3945 9.31721 16.9446 8.66323 15.6215C8.21499 14.7145 6.96111 14.6127 6.35092 15.4336C5.46067 16.6313 3.58376 15.7654 3.93867 14.3206C4.18192 13.3304 3.29702 12.4455 2.3068 12.6888C0.86207 13.0437 -0.00388884 11.1668 1.19384 10.2765C2.01477 9.66632 1.9129 8.41244 1.00598 7.9642C-0.317218 7.31022 0.232971 5.30058 1.71309 5.38136C2.72758 5.43673 3.4564 4.40058 3.05714 3.47057C2.47461 2.11371 4.18351 0.911672 5.25345 1.92569C5.9868 2.6207 7.2053 2.2871 7.50051 1.3105C7.93122 -0.114358 9.99922 0.0536585 10.1584 1.52644C10.2674 2.53589 11.4054 3.06094 12.257 2.4947Z" fill="#95B1B4"/>
</svg>
