<svg width="23" height="23" viewBox="0 0 23 23" fill="none" xmlns="http://www.w3.org/2000/svg">
<path fill-rule="evenodd" clip-rule="evenodd" d="M16.7691 13.7829C16.483 13.6404 15.0761 12.9515 14.8139 12.8564C14.5516 12.7614 14.3608 12.7139 14.1701 12.9989C13.9793 13.2839 13.4309 13.9254 13.264 14.1155C13.0971 14.3056 12.9302 14.3294 12.644 14.1868C12.3579 14.0443 11.4359 13.7436 10.343 12.7733C9.49235 12.0182 8.91805 11.0857 8.75118 10.8006C8.58422 10.5155 8.73331 10.3614 8.87658 10.2194C9.00536 10.0918 9.1628 9.88677 9.30583 9.72045C9.4489 9.55421 9.49659 9.43535 9.59197 9.24542C9.68735 9.05529 9.63966 8.88905 9.56809 8.74654C9.49659 8.60399 8.92431 7.20223 8.68586 6.63199C8.45359 6.07675 8.2177 6.15196 8.04205 6.14315C7.87534 6.13491 7.68438 6.13315 7.49366 6.13315C7.3029 6.13315 6.99287 6.20442 6.73054 6.48944C6.46832 6.77454 5.72909 7.46355 5.72909 8.86515C5.72909 10.267 6.75438 11.621 6.89749 11.8111C7.0406 12.0012 8.91517 14.8776 11.7857 16.1111C12.4684 16.4045 13.0013 16.5797 13.4169 16.7109C14.1024 16.9277 14.7261 16.8971 15.2192 16.8238C15.769 16.7421 16.9122 16.1349 17.1506 15.4698C17.3891 14.8044 17.3891 14.2343 17.3175 14.1155C17.246 13.9967 17.0552 13.9254 16.7691 13.7829ZM11.5481 20.8776H11.5443C9.83627 20.8769 8.16107 20.4202 6.69965 19.5572L6.35206 19.3518L2.74958 20.2923L3.71112 16.7967L3.48486 16.4383C2.53205 14.9301 2.0288 13.187 2.02954 11.397C2.03164 6.17413 6.30162 1.92491 11.5519 1.92491C14.0943 1.92581 16.4841 2.91243 18.2813 4.70302C20.0783 6.4935 21.0674 8.87351 21.0664 11.4046C21.0643 16.628 16.7944 20.8776 11.5481 20.8776ZM19.6489 3.34241C17.4868 1.18814 14.6115 0.00122958 11.548 0C5.23584 0 0.0985097 5.11243 0.0959564 11.3963C0.0951327 13.4051 0.62244 15.3657 1.62459 17.0941L0 23L6.07079 21.4152C7.74351 22.3231 9.62677 22.8017 11.5434 22.8023H11.5482C17.8596 22.8023 22.9974 17.6894 23 11.4054C23.0012 8.36012 21.811 5.49663 19.6489 3.34241Z" fill="#EBEAE5"/>
</svg>
