<svg width="18" height="18" viewBox="0 0 18 18" fill="none" xmlns="http://www.w3.org/2000/svg">
<path fill-rule="evenodd" clip-rule="evenodd" d="M13.1236 10.7866C12.8997 10.6751 11.7987 10.136 11.5934 10.0615C11.3882 9.98716 11.2389 9.95001 11.0896 10.1731C10.9403 10.3961 10.5112 10.8982 10.3805 11.0469C10.2499 11.1957 10.1193 11.2143 9.89534 11.1027C9.6714 10.9912 8.94983 10.7559 8.09451 9.99652C7.4288 9.40555 6.97935 8.67576 6.84875 8.45264C6.71809 8.22952 6.83476 8.10891 6.94689 7.9978C7.04767 7.89792 7.17089 7.73747 7.28283 7.60731C7.39479 7.47721 7.43212 7.38419 7.50676 7.23555C7.58141 7.08675 7.54408 6.95665 7.48807 6.84512C7.43212 6.73356 6.98425 5.63653 6.79763 5.19025C6.61585 4.75572 6.43124 4.81458 6.29378 4.80768C6.16331 4.80123 6.01386 4.79985 5.8646 4.79985C5.71531 4.79985 5.47268 4.85563 5.26738 5.07869C5.06217 5.30181 4.48364 5.84104 4.48364 6.93795C4.48364 8.03501 5.28604 9.0947 5.39804 9.24344C5.51004 9.39224 6.97709 11.6433 9.2236 12.6087C9.75784 12.8383 10.175 12.9754 10.5002 13.0781C11.0366 13.2478 11.5248 13.2238 11.9107 13.1664C12.3409 13.1025 13.2356 12.6273 13.4222 12.1068C13.6088 11.5861 13.6088 11.1399 13.5528 11.0469C13.4969 10.954 13.3476 10.8982 13.1236 10.7866ZM9.03763 16.339H9.03463C7.69795 16.3385 6.38692 15.981 5.2432 15.3056L4.97118 15.1449L2.15185 15.881L2.90436 13.1453L2.72728 12.8648C1.98161 11.6844 1.58775 10.3202 1.58833 8.91941C1.58998 4.83193 4.9317 1.50645 9.04059 1.50645C11.0303 1.50716 12.9006 2.27929 14.3071 3.68063C15.7135 5.08187 16.4875 6.94449 16.4868 8.92537C16.4851 13.0132 13.1434 16.339 9.03763 16.339ZM15.3774 2.6158C13.6853 0.929852 11.4351 0.00096228 9.03757 0C4.09762 0 0.0770946 4.00103 0.0750963 8.91883C0.0744517 10.4909 0.487127 12.0253 1.27142 13.378L0 18L4.75105 16.7597C6.06014 17.4703 7.53399 17.8448 9.03399 17.8453H9.03769C13.9771 17.8453 17.998 13.8439 18 8.92598C18.0009 6.5427 17.0695 4.30171 15.3774 2.6158Z" fill="#7DCA89"/>
</svg>
